# Blender 5.2.0 LTS
# www.blender.org
mtllib Outlast room update2.mtl
o Cube
v 16.035843 0.199878 -17.168947
v 16.035843 0.023093 -17.168947
v 16.035843 0.199878 16.656649
v 16.035843 0.023093 16.656649
v -16.035843 0.199878 -17.168947
v -16.035843 0.023093 -17.168947
v -16.035843 0.199878 16.656649
v -16.035843 0.023093 16.656649
vn -0.0000 1.0000 -0.0000
vn -0.0000 -0.0000 1.0000
vn -1.0000 -0.0000 -0.0000
vn -0.0000 -1.0000 -0.0000
vn 1.0000 -0.0000 -0.0000
vn -0.0000 -0.0000 -1.0000
vt 0.625000 0.500000
vt 0.875000 0.500000
vt 0.875000 0.750000
vt 0.625000 0.750000
vt 0.375000 0.750000
vt 0.625000 1.000000
vt 0.375000 1.000000
vt 0.375000 0.000000
vt 0.625000 0.000000
vt 0.625000 0.250000
vt 0.375000 0.250000
vt 0.125000 0.500000
vt 0.375000 0.500000
vt 0.125000 0.750000
s 0
usemtl Material
f 1/1/1 5/2/1 7/3/1 3/4/1
f 4/5/2 3/4/2 7/6/2 8/7/2
f 8/8/3 7/9/3 5/10/3 6/11/3
f 6/12/4 2/13/4 4/5/4 8/14/4
f 2/13/5 1/1/5 3/4/5 4/5/5
f 6/11/6 5/10/6 1/1/6 2/13/6
o Cube.001
v -16.110111 0.067843 -16.886490
v -16.110111 13.290705 -16.886490
v -16.110111 0.067843 -17.101639
v -16.110111 13.290705 -17.101639
v 16.053619 0.067843 -16.886490
v 16.053619 13.290705 -16.886490
v 16.053619 0.067843 -17.101639
v 16.053619 13.290705 -17.101639
vn -1.0000 -0.0000 -0.0000
vn -0.0000 -0.0000 -1.0000
vn 1.0000 -0.0000 -0.0000
vn -0.0000 -0.0000 1.0000
vn -0.0000 -1.0000 -0.0000
vn -0.0000 1.0000 -0.0000
vt 0.375000 0.000000
vt 0.625000 0.000000
vt 0.625000 0.250000
vt 0.375000 0.250000
vt 0.625000 0.500000
vt 0.375000 0.500000
vt 0.625000 0.750000
vt 0.375000 0.750000
vt 0.000079 0.000079
vt 0.628728 0.000079
vt 0.628729 0.999921
vt 0.000079 0.999921
vt 0.125000 0.500000
vt 0.125000 0.750000
vt 0.875000 0.500000
vt 0.875000 0.750000
s 0
usemtl Material.017
f 9/15/7 10/16/7 12/17/7 11/18/7
f 11/18/8 12/17/8 16/19/8 15/20/8
f 15/20/9 16/19/9 14/21/9 13/22/9
f 13/23/10 14/24/10 10/25/10 9/26/10
f 11/27/11 15/20/11 13/22/11 9/28/11
f 16/19/12 12/29/12 10/30/12 14/21/12
o Cube.002
v 16.163195 13.137089 -17.244268
v 16.200846 18.729202 -13.633974
v -16.177347 13.403002 -17.318893
v -16.139696 18.995117 -13.708600
v 16.161722 13.012357 -17.051050
v 16.199373 18.604471 -13.440758
v -16.178820 13.278270 -17.125677
v -16.141169 18.870384 -13.515384
vn 0.0064 0.5423 -0.8401
vn -1.0000 0.0082 -0.0023
vn -0.0064 -0.5423 0.8401
vn 1.0000 -0.0082 0.0023
vn -0.0057 -0.8401 -0.5424
vn 0.0057 0.8401 0.5424
vt 0.375000 0.000000
vt 0.375000 0.250000
vt 0.625000 0.250000
vt 0.625000 0.000000
vt 0.375000 0.500000
vt 0.625000 0.500000
vt 0.375000 0.750000
vt 0.625000 0.750000
vt 0.375000 1.000000
vt 0.625000 1.000000
vt 0.125000 0.500000
vt 0.125000 0.750000
vt 0.875000 0.750000
vt 0.875000 0.500000
s 0
usemtl Material.022
f 17/31/13 19/32/13 20/33/13 18/34/13
f 19/32/14 23/35/14 24/36/14 20/33/14
f 23/35/15 21/37/15 22/38/15 24/36/15
f 21/37/16 17/39/16 18/40/16 22/38/16
f 19/41/17 17/42/17 21/37/17 23/35/17
f 24/36/18 22/38/18 18/43/18 20/44/18
o Cube.004
v 16.152435 21.933674 -7.857624
v 16.108887 21.952532 8.548124
v -16.189087 22.147690 -7.943717
v -16.232635 22.166548 8.462032
v 16.150913 21.703550 -7.857363
v 16.107365 21.722408 8.548386
v -16.190609 21.917566 -7.943456
v -16.234158 21.936424 8.462292
vn 0.0066 1.0000 -0.0011
vn -1.0000 0.0066 -0.0027
vn -0.0066 -1.0000 0.0011
vn 1.0000 -0.0066 0.0027
vn 0.0027 -0.0011 -1.0000
vn -0.0027 0.0011 1.0000
vt 0.375000 0.000000
vt 0.375000 0.250000
vt 0.625000 0.250000
vt 0.625000 0.000000
vt 0.375000 0.500000
vt 0.625000 0.500000
vt 0.375000 0.750000
vt 0.625000 0.750000
vt 0.375000 1.000000
vt 0.625000 1.000000
vt 0.125000 0.500000
vt 0.125000 0.750000
vt 0.875000 0.750000
vt 0.875000 0.500000
s 0
usemtl Material.026
f 25/45/19 27/46/19 28/47/19 26/48/19
f 27/46/20 31/49/20 32/50/20 28/47/20
f 31/49/21 29/51/21 30/52/21 32/50/21
f 29/51/22 25/53/22 26/54/22 30/52/22
f 27/55/23 25/56/23 29/51/23 31/49/23
f 32/50/24 30/52/24 26/57/24 28/58/24
o Cube.005
v 15.958917 -0.191697 16.697863
v 15.958917 13.356956 16.697863
v 15.743765 -0.191697 16.698156
v 15.743765 13.356956 16.698156
v 15.913002 -0.191697 -17.057070
v 15.913002 13.356956 -17.057070
v 15.697850 -0.191697 -17.056776
v 15.697850 13.356956 -17.056776
vn 0.0014 -0.0000 1.0000
vn -1.0000 -0.0000 0.0014
vn -0.0014 -0.0000 -1.0000
vn 1.0000 -0.0000 -0.0014
vn -0.0000 -1.0000 -0.0000
vn -0.0000 1.0000 -0.0000
vt 0.375000 0.000000
vt 0.625000 0.000000
vt 0.625000 0.250000
vt 0.375000 0.250000
vt 0.625000 0.500000
vt 0.375000 0.500000
vt 0.625000 0.750000
vt 0.375000 0.750000
vt 0.625000 1.000000
vt 0.375000 1.000000
vt 0.125000 0.500000
vt 0.125000 0.750000
vt 0.875000 0.500000
vt 0.875000 0.750000
s 0
usemtl Material.024
f 33/59/25 34/60/25 36/61/25 35/62/25
f 35/62/26 36/61/26 40/63/26 39/64/26
f 39/64/27 40/63/27 38/65/27 37/66/27
f 37/66/28 38/65/28 34/67/28 33/68/28
f 35/69/29 39/64/29 37/66/29 33/70/29
f 40/63/30 36/71/30 34/72/30 38/65/30
o Cube.006
v -15.770220 -0.157501 16.622210
v -15.770220 13.322760 16.622210
v -15.985370 -0.157501 16.623201
v -15.985370 13.322760 16.623201
v -15.926059 -0.157501 -17.132391
v -15.926059 13.322760 -17.132391
v -16.141209 -0.157501 -17.131399
v -16.141209 13.322760 -17.131399
vn 0.0046 -0.0000 1.0000
vn -1.0000 -0.0000 0.0046
vn -0.0046 -0.0000 -1.0000
vn 1.0000 -0.0000 -0.0046
vn -0.0000 -1.0000 -0.0000
vn -0.0000 1.0000 -0.0000
vt 0.375000 0.000000
vt 0.625000 0.000000
vt 0.625000 0.250000
vt 0.375000 0.250000
vt 0.625000 0.500000
vt 0.375000 0.500000
vt 0.625000 0.750000
vt 0.375000 0.750000
vt 0.625000 1.000000
vt 0.375000 1.000000
vt 0.125000 0.500000
vt 0.125000 0.750000
vt 0.875000 0.500000
vt 0.875000 0.750000
s 0
usemtl Material.030
f 41/73/31 42/74/31 44/75/31 43/76/31
f 43/76/32 44/75/32 48/77/32 47/78/32
f 47/78/33 48/77/33 46/79/33 45/80/33
f 45/80/34 46/79/34 42/81/34 41/82/34
f 43/83/35 47/78/35 45/80/35 41/84/35
f 48/77/36 44/85/36 42/86/36 46/79/36
o Cube.009
v 16.142174 18.903913 -13.564335
v 16.124500 21.946018 -7.643806
v -16.198723 19.055111 -13.738567
v -16.216396 22.097216 -7.818039
v 16.140652 18.699354 -13.459232
v 16.122978 21.741459 -7.538704
v -16.200245 18.850552 -13.633466
v -16.217918 21.892656 -7.712936
vn 0.0066 0.8894 -0.4570
vn -1.0000 0.0047 -0.0054
vn -0.0066 -0.8894 0.4570
vn 1.0000 -0.0047 0.0054
vn 0.0027 -0.4570 -0.8895
vn -0.0027 0.4570 0.8895
vt 0.375000 0.000000
vt 0.375000 0.250000
vt 0.625000 0.250000
vt 0.625000 0.000000
vt 0.375000 0.500000
vt 0.625000 0.500000
vt 0.375000 0.750000
vt 0.625000 0.750000
vt 0.375000 1.000000
vt 0.625000 1.000000
vt 0.125000 0.500000
vt 0.125000 0.750000
vt 0.875000 0.750000
vt 0.875000 0.500000
s 0
usemtl Material.027
f 49/87/37 51/88/37 52/89/37 50/90/37
f 51/88/38 55/91/38 56/92/38 52/89/38
f 55/91/39 53/93/39 54/94/39 56/92/39
f 53/93/40 49/95/40 50/96/40 54/94/40
f 51/97/41 49/98/41 53/93/41 55/91/41
f 56/92/42 54/94/42 50/99/42 52/100/42
o Cube.003
v -15.769265 13.264490 16.590570
v -15.657324 22.314449 16.590570
v -15.984446 13.267152 16.590864
v -15.872503 22.317110 16.590864
v -15.815176 13.265059 -17.164366
v -15.703234 22.315018 -17.164366
v -16.030355 13.267719 -17.164072
v -15.918414 22.317678 -17.164072
vn 0.0014 -0.0000 1.0000
vn -0.9999 0.0124 0.0014
vn -0.0014 -0.0000 -1.0000
vn 0.9999 -0.0124 -0.0014
vn -0.0124 -0.9999 -0.0000
vn 0.0124 0.9999 -0.0000
vt 0.375000 0.000000
vt 0.625000 0.000000
vt 0.625000 0.250000
vt 0.375000 0.250000
vt 0.625000 0.500000
vt 0.375000 0.500000
vt 0.625000 0.750000
vt 0.375000 0.750000
vt 0.625000 1.000000
vt 0.375000 1.000000
vt 0.125000 0.500000
vt 0.125000 0.750000
vt 0.875000 0.500000
vt 0.875000 0.750000
s 0
usemtl Material.023
f 57/101/43 58/102/43 60/103/43 59/104/43
f 59/104/44 60/103/44 64/105/44 63/106/44
f 63/106/45 64/105/45 62/107/45 61/108/45
f 61/108/46 62/107/46 58/109/46 57/110/46
f 59/111/47 63/106/47 61/108/47 57/112/47
f 64/105/48 60/113/48 58/114/48 62/107/48
o Cube.007
v 16.076115 13.270148 16.590570
v 15.860735 22.318233 16.590570
v 15.860978 13.265027 16.590864
v 15.645600 22.313114 16.590864
v 16.030212 13.269055 -17.164366
v 15.814834 22.317142 -17.164366
v 15.815077 13.263934 -17.164072
v 15.599698 22.312019 -17.164072
vn 0.0014 -0.0000 1.0000
vn -0.9997 -0.0238 0.0014
vn -0.0014 -0.0000 -1.0000
vn 0.9997 0.0238 -0.0014
vn 0.0238 -0.9997 -0.0000
vn -0.0238 0.9997 -0.0000
vt 0.375000 0.000000
vt 0.625000 0.000000
vt 0.625000 0.250000
vt 0.375000 0.250000
vt 0.625000 0.500000
vt 0.375000 0.500000
vt 0.625000 0.750000
vt 0.375000 0.750000
vt 0.625000 1.000000
vt 0.375000 1.000000
vt 0.125000 0.500000
vt 0.125000 0.750000
vt 0.875000 0.500000
vt 0.875000 0.750000
s 0
usemtl Material.025
f 65/115/49 66/116/49 68/117/49 67/118/49
f 67/118/50 68/117/50 72/119/50 71/120/50
f 71/120/51 72/119/51 70/121/51 69/122/51
f 69/122/52 70/121/52 66/123/52 65/124/52
f 67/125/53 71/120/53 69/122/53 65/126/53
f 72/119/54 68/127/54 66/128/54 70/121/54
o Cube.008
v 7.131420 2.873838 -16.295179
v 7.131420 7.201613 -16.295179
v 7.131420 2.873838 -16.692205
v 7.131420 7.201613 -16.692205
v 15.703859 2.873838 -16.295179
v 15.703859 7.201613 -16.295179
v 15.703859 2.873838 -16.692205
v 15.703859 7.201613 -16.692205
vn -1.0000 -0.0000 -0.0000
vn -0.0000 -0.0000 -1.0000
vn 1.0000 -0.0000 -0.0000
vn -0.0000 -0.0000 1.0000
vn -0.0000 -1.0000 -0.0000
vn -0.0000 1.0000 -0.0000
vt 0.375000 0.000000
vt 0.625000 0.000000
vt 0.625000 0.250000
vt 0.375000 0.250000
vt 0.625000 0.500000
vt 0.375000 0.500000
vt 0.625000 0.750000
vt 0.375000 0.750000
vt 0.625000 1.000000
vt 0.375000 1.000000
vt 0.125000 0.500000
vt 0.125000 0.750000
vt 0.875000 0.500000
vt 0.875000 0.750000
s 0
usemtl Material.010
f 73/129/55 74/130/55 76/131/55 75/132/55
f 75/132/56 76/131/56 80/133/56 79/134/56
f 79/134/57 80/133/57 78/135/57 77/136/57
f 77/136/58 78/135/58 74/137/58 73/138/58
f 75/139/59 79/134/59 77/136/59 73/140/59
f 80/133/60 76/141/60 74/142/60 78/135/60
o Cube.010
v 7.131420 2.873838 -2.951916
v 7.131420 7.201613 -2.951916
v 7.131420 2.873838 -3.348942
v 7.131420 7.201613 -3.348942
v 15.703859 2.873838 -2.951916
v 15.703859 7.201613 -2.951916
v 15.703859 2.873838 -3.348942
v 15.703859 7.201613 -3.348942
vn -1.0000 -0.0000 -0.0000
vn -0.0000 -0.0000 -1.0000
vn 1.0000 -0.0000 -0.0000
vn -0.0000 -0.0000 1.0000
vn -0.0000 -1.0000 -0.0000
vn -0.0000 1.0000 -0.0000
vt 0.375000 0.000000
vt 0.625000 0.000000
vt 0.625000 0.250000
vt 0.375000 0.250000
vt 0.625000 0.500000
vt 0.375000 0.500000
vt 0.625000 0.750000
vt 0.375000 0.750000
vt 0.625000 1.000000
vt 0.375000 1.000000
vt 0.125000 0.500000
vt 0.125000 0.750000
vt 0.875000 0.500000
vt 0.875000 0.750000
s 0
usemtl Material.005
f 81/143/61 82/144/61 84/145/61 83/146/61
f 83/146/62 84/145/62 88/147/62 87/148/62
f 87/148/63 88/147/63 86/149/63 85/150/63
f 85/150/64 86/149/64 82/151/64 81/152/64
f 83/153/65 87/148/65 85/150/65 81/154/65
f 88/147/66 84/155/66 82/156/66 86/149/66
o Cube.011
v 7.457123 5.708731 -15.809313
v 7.457123 7.217391 -15.809313
v 7.457123 5.708731 -16.206339
v 7.457123 7.217391 -16.206339
v 15.378157 5.708731 -15.809313
v 15.378157 7.217391 -15.809313
v 15.378157 5.708731 -16.206339
v 15.378157 7.217391 -16.206339
vn -1.0000 -0.0000 -0.0000
vn -0.0000 -0.0000 -1.0000
vn 1.0000 -0.0000 -0.0000
vn -0.0000 -0.0000 1.0000
vn -0.0000 -1.0000 -0.0000
vn -0.0000 1.0000 -0.0000
vt 0.375000 0.000000
vt 0.625000 0.000000
vt 0.625000 0.250000
vt 0.375000 0.250000
vt 0.625000 0.500000
vt 0.375000 0.500000
vt 0.625000 0.750000
vt 0.375000 0.750000
vt 0.625000 1.000000
vt 0.375000 1.000000
vt 0.125000 0.500000
vt 0.125000 0.750000
vt 0.875000 0.500000
vt 0.875000 0.750000
s 0
usemtl Material.009
f 89/157/67 90/158/67 92/159/67 91/160/67
f 91/160/68 92/159/68 96/161/68 95/162/68
f 95/162/69 96/161/69 94/163/69 93/164/69
f 93/164/70 94/163/70 90/165/70 89/166/70
f 91/167/71 95/162/71 93/164/71 89/168/71
f 96/161/72 92/169/72 90/170/72 94/163/72
o Cube.012
v 7.428101 2.957872 -16.047424
v 7.124189 2.961086 -16.047424
v 7.428101 2.957872 -16.444450
v 7.124189 2.961086 -16.444450
v 7.473320 7.234533 -16.047424
v 7.169408 7.237746 -16.047424
v 7.473320 7.234533 -16.444450
v 7.169408 7.237746 -16.444450
vn -0.0106 -0.9999 -0.0000
vn -0.0000 -0.0000 -1.0000
vn 0.0106 0.9999 -0.0000
vn -0.0000 -0.0000 1.0000
vn 0.9999 -0.0106 -0.0000
vn -0.9999 0.0106 -0.0000
vt 0.375000 0.000000
vt 0.625000 0.000000
vt 0.625000 0.250000
vt 0.375000 0.250000
vt 0.625000 0.500000
vt 0.375000 0.500000
vt 0.625000 0.750000
vt 0.375000 0.750000
vt 0.625000 1.000000
vt 0.375000 1.000000
vt 0.125000 0.500000
vt 0.125000 0.750000
vt 0.875000 0.500000
vt 0.875000 0.750000
s 0
usemtl Material.007
f 97/171/73 98/172/73 100/173/73 99/174/73
f 99/174/74 100/173/74 104/175/74 103/176/74
f 103/176/75 104/175/75 102/177/75 101/178/75
f 101/178/76 102/177/76 98/179/76 97/180/76
f 99/181/77 103/176/77 101/178/77 97/182/77
f 104/175/78 100/183/78 98/184/78 102/177/78
o Cube.014
v 16.111526 2.783317 -2.948239
v 16.112093 2.478747 -2.953419
v 16.111849 2.795281 -3.651621
v 16.112415 2.490711 -3.656801
v 6.838015 2.766159 -2.952781
v 6.838582 2.461589 -2.957961
v 6.838337 2.778123 -3.656163
v 6.838904 2.473553 -3.661343
vn 1.0000 0.0019 0.0005
vn 0.0005 0.0170 -0.9999
vn -1.0000 -0.0019 -0.0005
vn -0.0005 -0.0170 0.9999
vn -0.0019 0.9999 0.0170
vn 0.0019 -0.9999 -0.0170
vt 0.375000 0.000000
vt 0.625000 0.000000
vt 0.625000 0.250000
vt 0.375000 0.250000
vt 0.625000 0.500000
vt 0.375000 0.500000
vt 0.625000 0.750000
vt 0.375000 0.750000
vt 0.625000 1.000000
vt 0.375000 1.000000
vt 0.125000 0.500000
vt 0.125000 0.750000
vt 0.875000 0.500000
vt 0.875000 0.750000
s 0
usemtl Material.004
f 105/185/79 106/186/79 108/187/79 107/188/79
f 107/188/80 108/187/80 112/189/80 111/190/80
f 111/190/81 112/189/81 110/191/81 109/192/81
f 109/192/82 110/191/82 106/193/82 105/194/82
f 107/195/83 111/190/83 109/192/83 105/196/83
f 112/189/84 108/197/84 106/198/84 110/191/84
o Cube.016
v 7.171038 2.643344 -3.262820
v 7.171038 4.057164 -3.262820
v 7.171038 2.643344 -16.549969
v 7.171038 4.057164 -16.549969
v 15.743477 2.643344 -3.262820
v 15.743477 4.057164 -3.262820
v 15.743477 2.643344 -16.549969
v 15.743477 4.057164 -16.549969
vn -1.0000 -0.0000 -0.0000
vn -0.0000 -0.0000 -1.0000
vn 1.0000 -0.0000 -0.0000
vn -0.0000 -0.0000 1.0000
vn -0.0000 -1.0000 -0.0000
vn -0.0000 1.0000 -0.0000
vt 0.375000 0.000000
vt 0.625000 0.000000
vt 0.625000 0.250000
vt 0.375000 0.250000
vt 0.625000 0.500000
vt 0.375000 0.500000
vt 0.625000 0.750000
vt 0.375000 0.750000
vt 0.625000 1.000000
vt 0.375000 1.000000
vt 0.125000 0.500000
vt 0.125000 0.750000
vt 0.875000 0.500000
vt 0.875000 0.750000
s 0
usemtl Material.018
f 113/199/85 114/200/85 116/201/85 115/202/85
f 115/202/86 116/201/86 120/203/86 119/204/86
f 119/204/87 120/203/87 118/205/87 117/206/87
f 117/206/88 118/205/88 114/207/88 113/208/88
f 115/209/89 119/204/89 117/206/89 113/210/89
f 120/203/90 116/211/90 114/212/90 118/205/90
o Cube.015
v 7.833450 0.097933 -3.324331
v 7.363055 0.102907 -3.324331
v 7.833450 0.097933 -3.866969
v 7.363055 0.102907 -3.866969
v 7.864166 3.002931 -3.324331
v 7.393772 3.007905 -3.324331
v 7.864166 3.002931 -3.866969
v 7.393772 3.007905 -3.866969
vn -0.0106 -0.9999 -0.0000
vn -0.0000 -0.0000 -1.0000
vn 0.0106 0.9999 -0.0000
vn -0.0000 -0.0000 1.0000
vn 0.9999 -0.0106 -0.0000
vn -0.9999 0.0106 -0.0000
vt 0.375000 0.000000
vt 0.625000 0.000000
vt 0.625000 0.250000
vt 0.375000 0.250000
vt 0.625000 0.500000
vt 0.375000 0.500000
vt 0.625000 0.750000
vt 0.375000 0.750000
vt 0.625000 1.000000
vt 0.375000 1.000000
vt 0.125000 0.500000
vt 0.125000 0.750000
vt 0.875000 0.500000
vt 0.875000 0.750000
s 0
usemtl Material.006
f 121/213/91 122/214/91 124/215/91 123/216/91
f 123/216/92 124/215/92 128/217/92 127/218/92
f 127/218/93 128/217/93 126/219/93 125/220/93
f 125/220/94 126/219/94 122/221/94 121/222/94
f 123/223/95 127/218/95 125/220/95 121/224/95
f 128/217/96 124/225/96 122/226/96 126/219/96
o bed
v 15.667275 0.097933 -3.324331
v 15.196881 0.102907 -3.324331
v 15.667275 0.097933 -3.866969
v 15.196881 0.102907 -3.866969
v 15.697991 3.002931 -3.324331
v 15.227597 3.007905 -3.324331
v 15.697991 3.002931 -3.866969
v 15.227597 3.007905 -3.866969
vn -0.0106 -0.9999 -0.0000
vn -0.0000 -0.0000 -1.0000
vn 0.0106 0.9999 -0.0000
vn -0.0000 -0.0000 1.0000
vn 0.9999 -0.0106 -0.0000
vn -0.9999 0.0106 -0.0000
vt 0.375000 0.000000
vt 0.625000 0.000000
vt 0.625000 0.250000
vt 0.375000 0.250000
vt 0.625000 0.500000
vt 0.375000 0.500000
vt 0.625000 0.750000
vt 0.375000 0.750000
vt 0.625000 1.000000
vt 0.375000 1.000000
vt 0.125000 0.500000
vt 0.125000 0.750000
vt 0.875000 0.500000
vt 0.875000 0.750000
s 0
f 129/227/97 130/228/97 132/229/97 131/230/97
f 131/230/98 132/229/98 136/231/98 135/232/98
f 135/232/99 136/231/99 134/233/99 133/234/99
f 133/234/100 134/233/100 130/235/100 129/236/100
f 131/237/101 135/232/101 133/234/101 129/238/101
f 136/231/102 132/239/102 130/240/102 134/233/102
o Cube.018
v 7.802121 0.097933 -15.991786
v 7.331727 0.102907 -15.991786
v 7.802121 0.097933 -16.534424
v 7.331727 0.102907 -16.534424
v 7.832838 3.002931 -15.991786
v 7.362443 3.007905 -15.991786
v 7.832838 3.002931 -16.534424
v 7.362443 3.007905 -16.534424
vn -0.0106 -0.9999 -0.0000
vn -0.0000 -0.0000 -1.0000
vn 0.0106 0.9999 -0.0000
vn -0.0000 -0.0000 1.0000
vn 0.9999 -0.0106 -0.0000
vn -0.9999 0.0106 -0.0000
vt 0.375000 0.000000
vt 0.625000 0.000000
vt 0.625000 0.250000
vt 0.375000 0.250000
vt 0.625000 0.500000
vt 0.375000 0.500000
vt 0.625000 0.750000
vt 0.375000 0.750000
vt 0.625000 1.000000
vt 0.375000 1.000000
vt 0.125000 0.500000
vt 0.125000 0.750000
vt 0.875000 0.500000
vt 0.875000 0.750000
s 0
usemtl Material.008
f 137/241/103 138/242/103 140/243/103 139/244/103
f 139/244/104 140/243/104 144/245/104 143/246/104
f 143/246/105 144/245/105 142/247/105 141/248/105
f 141/248/106 142/247/106 138/249/106 137/250/106
f 139/251/107 143/246/107 141/248/107 137/252/107
f 144/245/108 140/253/108 138/254/108 142/247/108
o Cube.019
v 8.686529 4.444471 -13.071789
v 8.686529 5.571994 -12.889764
v 8.686529 4.872889 -15.725539
v 8.686529 6.000411 -15.543514
v 14.479322 4.444471 -13.071789
v 14.479322 5.571994 -12.889764
v 14.479322 4.872889 -15.725539
v 14.479322 6.000411 -15.543514
vn -1.0000 -0.0000 -0.0000
vn -0.0000 0.1594 -0.9872
vn 1.0000 -0.0000 -0.0000
vn -0.0000 -0.1594 0.9872
vn -0.0000 -0.9872 -0.1594
vn -0.0000 0.9872 0.1594
vt 0.375000 0.000000
vt 0.625000 0.000000
vt 0.625000 0.250000
vt 0.375000 0.250000
vt 0.625000 0.500000
vt 0.375000 0.500000
vt 0.625000 0.750000
vt 0.375000 0.750000
vt 0.625000 1.000000
vt 0.375000 1.000000
vt 0.125000 0.500000
vt 0.125000 0.750000
vt 0.875000 0.500000
vt 0.875000 0.750000
s 0
usemtl Material.021
f 145/255/109 146/256/109 148/257/109 147/258/109
f 147/258/110 148/257/110 152/259/110 151/260/110
f 151/260/111 152/259/111 150/261/111 149/262/111
f 149/262/112 150/261/112 146/263/112 145/264/112
f 147/265/113 151/260/113 149/262/113 145/266/113
f 152/259/114 148/267/114 146/268/114 150/261/114
o Cube.020
v 6.527755 4.182804 -3.482487
v 6.527755 4.632619 -3.482487
v 6.527755 4.182804 -14.136181
v 6.527755 4.632619 -14.136181
v 16.424841 4.182804 -3.482487
v 16.424841 4.632619 -3.482487
v 16.424841 4.182804 -14.136181
v 16.424841 4.632619 -14.136181
vn -1.0000 -0.0000 -0.0000
vn -0.0000 -0.0000 -1.0000
vn 1.0000 -0.0000 -0.0000
vn -0.0000 -0.0000 1.0000
vn -0.0000 -1.0000 -0.0000
vn -0.0000 1.0000 -0.0000
vt 0.375000 0.000000
vt 0.625000 0.000000
vt 0.625000 0.250000
vt 0.375000 0.250000
vt 0.625000 0.500000
vt 0.375000 0.500000
vt 0.625000 0.750000
vt 0.375000 0.750000
vt 0.625000 1.000000
vt 0.375000 1.000000
vt 0.125000 0.500000
vt 0.125000 0.750000
vt 0.875000 0.500000
vt 0.875000 0.750000
s 0
usemtl Material.003
f 153/269/115 154/270/115 156/271/115 155/272/115
f 155/272/116 156/271/116 160/273/116 159/274/116
f 159/274/117 160/273/117 158/275/117 157/276/117
f 157/276/118 158/275/118 154/277/118 153/278/118
f 155/279/119 159/274/119 157/276/119 153/280/119
f 160/273/120 156/281/120 154/282/120 158/275/120
o Cube.013
v 15.794421 7.898591 3.211473
v 15.794421 12.442483 3.211473
v 15.579269 7.898591 3.211765
v 15.579269 12.442483 3.211765
v 15.789660 7.898591 -0.289599
v 15.789660 12.442483 -0.289599
v 15.574508 7.898591 -0.289307
v 15.574508 12.442483 -0.289307
vn 0.0014 -0.0000 1.0000
vn -1.0000 -0.0000 0.0014
vn -0.0014 -0.0000 -1.0000
vn 1.0000 -0.0000 -0.0014
vn -0.0000 -1.0000 -0.0000
vn -0.0000 1.0000 -0.0000
vt 0.375000 0.000000
vt 0.625000 0.000000
vt 0.625000 0.250000
vt 0.375000 0.250000
vt 0.625000 0.500000
vt 0.375000 0.500000
vt 0.625000 0.750000
vt 0.375000 0.750000
vt 0.625000 1.000000
vt 0.375000 1.000000
vt 0.125000 0.500000
vt 0.125000 0.750000
vt 0.875000 0.500000
vt 0.875000 0.750000
s 0
usemtl Material.028
f 161/283/121 162/284/121 164/285/121 163/286/121
f 163/286/122 164/285/122 168/287/122 167/288/122
f 167/288/123 168/287/123 166/289/123 165/290/123
f 165/290/124 166/289/124 162/291/124 161/292/124
f 163/293/125 167/288/125 165/290/125 161/294/125
f 168/287/126 164/295/126 162/296/126 166/289/126
o Cube.021
v 14.698009 13.389627 6.679659
v 14.698009 14.256558 6.679659
v 15.441243 13.389627 6.678648
v 15.441243 14.256558 6.678648
v 14.685876 13.389627 -2.240528
v 14.685876 14.256558 -2.240528
v 15.429110 13.389627 -2.241539
v 15.429110 14.256558 -2.241539
vn 0.0014 -0.0000 1.0000
vn 1.0000 -0.0000 -0.0014
vn -0.0014 -0.0000 -1.0000
vn -1.0000 -0.0000 0.0014
vn -0.0000 -1.0000 -0.0000
vn -0.0000 1.0000 -0.0000
vt 0.375000 0.000000
vt 0.375000 0.250000
vt 0.625000 0.250000
vt 0.625000 0.000000
vt 0.375000 0.500000
vt 0.625000 0.500000
vt 0.375000 0.750000
vt 0.625000 0.750000
vt 0.375000 1.000000
vt 0.625000 1.000000
vt 0.125000 0.500000
vt 0.125000 0.750000
vt 0.875000 0.750000
vt 0.875000 0.500000
s 0
usemtl Material.029
f 169/297/127 171/298/127 172/299/127 170/300/127
f 171/298/128 175/301/128 176/302/128 172/299/128
f 175/301/129 173/303/129 174/304/129 176/302/129
f 173/303/130 169/305/130 170/306/130 174/304/130
f 171/307/131 169/308/131 173/303/131 175/301/131
f 176/302/132 174/304/132 170/309/132 172/310/132
o Cube.022
v 11.759308 6.345925 5.727984
v 11.759308 5.520001 5.727984
v 11.759308 6.345925 -1.939506
v 11.759308 5.520001 -1.939506
v 15.811409 6.345925 5.727984
v 15.811409 5.520001 5.727984
v 15.811409 6.345925 -1.939506
v 15.811409 5.520001 -1.939506
vn -1.0000 -0.0000 -0.0000
vn -0.0000 -0.0000 -1.0000
vn 1.0000 -0.0000 -0.0000
vn -0.0000 -0.0000 1.0000
vn -0.0000 1.0000 -0.0000
vn -0.0000 -1.0000 -0.0000
vt 0.375000 0.000000
vt 0.375000 0.250000
vt 0.625000 0.250000
vt 0.625000 0.000000
vt 0.375000 0.500000
vt 0.625000 0.500000
vt 0.375000 0.750000
vt 0.625000 0.750000
vt 0.375000 1.000000
vt 0.625000 1.000000
vt 0.125000 0.500000
vt 0.125000 0.750000
vt 0.875000 0.750000
vt 0.875000 0.500000
s 0
usemtl Material.011
f 177/311/133 179/312/133 180/313/133 178/314/133
f 179/312/134 183/315/134 184/316/134 180/313/134
f 183/315/135 181/317/135 182/318/135 184/316/135
f 181/317/136 177/319/136 178/320/136 182/318/136
f 179/321/137 177/322/137 181/317/137 183/315/137
f 184/316/138 182/318/138 178/323/138 180/324/138
o Cube.023
v 11.509424 -1.293283 6.122781
v 11.501308 -1.292175 5.296921
v 11.509525 6.364604 6.133061
v 11.501410 6.365713 5.307201
v 15.715969 -1.293283 6.081443
v 15.707853 -1.292175 5.255583
v 15.716070 6.364604 6.091723
v 15.707954 6.365713 5.265863
vn -1.0000 -0.0000 0.0098
vn -0.0000 1.0000 0.0013
vn 1.0000 -0.0000 -0.0098
vn -0.0000 -1.0000 -0.0013
vn 0.0098 -0.0013 1.0000
vn -0.0098 0.0013 -1.0000
vt 0.375000 0.000000
vt 0.375000 0.250000
vt 0.625000 0.250000
vt 0.625000 0.000000
vt 0.375000 0.500000
vt 0.625000 0.500000
vt 0.375000 0.750000
vt 0.625000 0.750000
vt 0.375000 1.000000
vt 0.625000 1.000000
vt 0.125000 0.500000
vt 0.125000 0.750000
vt 0.875000 0.750000
vt 0.875000 0.500000
s 0
usemtl Material.016
f 185/325/139 187/326/139 188/327/139 186/328/139
f 187/326/140 191/329/140 192/330/140 188/327/140
f 191/329/141 189/331/141 190/332/141 192/330/141
f 189/331/142 185/333/142 186/334/142 190/332/142
f 187/335/143 185/336/143 189/331/143 191/329/143
f 192/330/144 190/332/144 186/337/144 188/338/144
o Cube.024
v 11.736485 -1.256623 -1.731131
v 11.728369 -1.255514 -2.556991
v 11.736586 6.401265 -1.720851
v 11.728470 6.402373 -2.546711
v 15.943029 -1.256623 -1.772469
v 15.934914 -1.255514 -2.598329
v 15.943130 6.401265 -1.762189
v 15.935015 6.402373 -2.588049
vn -1.0000 -0.0000 0.0098
vn -0.0000 1.0000 0.0013
vn 1.0000 -0.0000 -0.0098
vn -0.0000 -1.0000 -0.0013
vn 0.0098 -0.0013 1.0000
vn -0.0098 0.0013 -1.0000
vt 0.375000 0.000000
vt 0.375000 0.250000
vt 0.625000 0.250000
vt 0.625000 0.000000
vt 0.375000 0.500000
vt 0.625000 0.500000
vt 0.375000 0.750000
vt 0.625000 0.750000
vt 0.375000 1.000000
vt 0.625000 1.000000
vt 0.125000 0.500000
vt 0.125000 0.750000
vt 0.875000 0.750000
vt 0.875000 0.500000
s 0
usemtl Material.015
f 193/339/145 195/340/145 196/341/145 194/342/145
f 195/340/146 199/343/146 200/344/146 196/341/146
f 199/343/147 197/345/147 198/346/147 200/344/147
f 197/345/148 193/347/148 194/348/148 198/346/148
f 195/349/149 193/350/149 197/345/149 199/343/149
f 200/344/150 198/346/150 194/351/150 196/352/150
o Cube.025
v 11.759308 4.457409 5.727984
v 11.759308 4.174920 5.727984
v 11.759308 4.457409 -1.939506
v 11.759308 4.174920 -1.939506
v 15.811409 4.457409 5.727984
v 15.811409 4.174920 5.727984
v 15.811409 4.457409 -1.939506
v 15.811409 4.174920 -1.939506
vn -1.0000 -0.0000 -0.0000
vn -0.0000 -0.0000 -1.0000
vn 1.0000 -0.0000 -0.0000
vn -0.0000 -0.0000 1.0000
vn -0.0000 1.0000 -0.0000
vn -0.0000 -1.0000 -0.0000
vt 0.375000 0.000000
vt 0.375000 0.250000
vt 0.625000 0.250000
vt 0.625000 0.000000
vt 0.375000 0.500000
vt 0.625000 0.500000
vt 0.375000 0.750000
vt 0.625000 0.750000
vt 0.375000 1.000000
vt 0.625000 1.000000
vt 0.125000 0.500000
vt 0.125000 0.750000
vt 0.875000 0.750000
vt 0.875000 0.500000
s 0
usemtl Material.012
f 201/353/151 203/354/151 204/355/151 202/356/151
f 203/354/152 207/357/152 208/358/152 204/355/152
f 207/357/153 205/359/153 206/360/153 208/358/153
f 205/359/154 201/361/154 202/362/154 206/360/154
f 203/363/155 201/364/155 205/359/155 207/357/155
f 208/358/156 206/360/156 202/365/156 204/366/156
o Cube.026
v 11.759308 3.108158 5.727984
v 11.759308 2.825669 5.727984
v 11.759308 3.108158 -1.939506
v 11.759308 2.825669 -1.939506
v 15.811409 3.108158 5.727984
v 15.811409 2.825669 5.727984
v 15.811409 3.108158 -1.939506
v 15.811409 2.825669 -1.939506
vn -1.0000 -0.0000 -0.0000
vn -0.0000 -0.0000 -1.0000
vn 1.0000 -0.0000 -0.0000
vn -0.0000 -0.0000 1.0000
vn -0.0000 1.0000 -0.0000
vn -0.0000 -1.0000 -0.0000
vt 0.375000 0.000000
vt 0.375000 0.250000
vt 0.625000 0.250000
vt 0.625000 0.000000
vt 0.375000 0.500000
vt 0.625000 0.500000
vt 0.375000 0.750000
vt 0.625000 0.750000
vt 0.375000 1.000000
vt 0.625000 1.000000
vt 0.125000 0.500000
vt 0.125000 0.750000
vt 0.875000 0.750000
vt 0.875000 0.500000
s 0
usemtl Material.013
f 209/367/157 211/368/157 212/369/157 210/370/157
f 211/368/158 215/371/158 216/372/158 212/369/158
f 215/371/159 213/373/159 214/374/159 216/372/159
f 213/373/160 209/375/160 210/376/160 214/374/160
f 211/377/161 209/378/161 213/373/161 215/371/161
f 216/372/162 214/374/162 210/379/162 212/380/162
o Cube.027
v 11.759308 1.228113 5.727984
v 11.759308 0.945625 5.727984
v 11.759308 1.228113 -1.939506
v 11.759308 0.945625 -1.939506
v 15.811409 1.228113 5.727984
v 15.811409 0.945625 5.727984
v 15.811409 1.228113 -1.939506
v 15.811409 0.945625 -1.939506
vn -1.0000 -0.0000 -0.0000
vn -0.0000 -0.0000 -1.0000
vn 1.0000 -0.0000 -0.0000
vn -0.0000 -0.0000 1.0000
vn -0.0000 1.0000 -0.0000
vn -0.0000 -1.0000 -0.0000
vt 0.375000 0.000000
vt 0.375000 0.250000
vt 0.625000 0.250000
vt 0.625000 0.000000
vt 0.375000 0.500000
vt 0.625000 0.500000
vt 0.375000 0.750000
vt 0.625000 0.750000
vt 0.375000 1.000000
vt 0.625000 1.000000
vt 0.125000 0.500000
vt 0.125000 0.750000
vt 0.875000 0.750000
vt 0.875000 0.500000
s 0
usemtl Material.014
f 217/381/163 219/382/163 220/383/163 218/384/163
f 219/382/164 223/385/164 224/386/164 220/383/164
f 223/385/165 221/387/165 222/388/165 224/386/165
f 221/387/166 217/389/166 218/390/166 222/388/166
f 219/391/167 217/392/167 221/387/167 223/385/167
f 224/386/168 222/388/168 218/393/168 220/394/168
o Cube.028
v 13.652003 6.172685 4.500918
v 13.652003 10.789596 4.500918
v 13.212537 6.172685 4.501516
v 13.212537 10.789596 4.501516
v 13.651509 6.172685 4.137723
v 13.651509 10.789596 4.137723
v 13.212043 6.172685 4.138321
v 13.212043 10.789596 4.138321
vn 0.0014 -0.0000 1.0000
vn -1.0000 -0.0000 0.0014
vn -0.0014 -0.0000 -1.0000
vn 1.0000 -0.0000 -0.0014
vn -0.0000 -1.0000 -0.0000
vn -0.0000 1.0000 -0.0000
vt 0.375000 0.000000
vt 0.625000 0.000000
vt 0.625000 0.250000
vt 0.375000 0.250000
vt 0.625000 0.500000
vt 0.375000 0.500000
vt 0.625000 0.750000
vt 0.375000 0.750000
vt 0.625000 1.000000
vt 0.375000 1.000000
vt 0.125000 0.500000
vt 0.125000 0.750000
vt 0.875000 0.500000
vt 0.875000 0.750000
s 0
usemtl Material.019
f 225/395/169 226/396/169 228/397/169 227/398/169
f 227/398/170 228/397/170 232/399/170 231/400/170
f 231/400/171 232/399/171 230/401/171 229/402/171
f 229/402/172 230/401/172 226/403/172 225/404/172
f 227/405/173 231/400/173 229/402/173 225/406/173
f 232/399/174 228/407/174 226/408/174 230/401/174
o Cube.029
v 13.629793 9.104381 2.862429
v 13.629794 9.100381 5.832839
v 13.234699 9.103844 2.862429
v 13.234700 9.099844 5.832839
v 13.629346 9.433329 2.862872
v 13.629347 9.429329 5.833282
v 13.234252 9.432792 2.862872
v 13.234253 9.428792 5.833282
vn 0.0014 -1.0000 -0.0013
vn -1.0000 -0.0014 -0.0000
vn -0.0014 1.0000 0.0013
vn 1.0000 0.0014 -0.0000
vn -0.0000 0.0013 -1.0000
vn -0.0000 -0.0013 1.0000
vt 0.375000 0.000000
vt 0.625000 0.000000
vt 0.625000 0.250000
vt 0.375000 0.250000
vt 0.625000 0.500000
vt 0.375000 0.500000
vt 0.625000 0.750000
vt 0.375000 0.750000
vt 0.625000 1.000000
vt 0.375000 1.000000
vt 0.125000 0.500000
vt 0.125000 0.750000
vt 0.875000 0.500000
vt 0.875000 0.750000
s 0
usemtl Material.020
f 233/409/175 234/410/175 236/411/175 235/412/175
f 235/412/176 236/411/176 240/413/176 239/414/176
f 239/414/177 240/413/177 238/415/177 237/416/177
f 237/416/178 238/415/178 234/417/178 233/418/178
f 235/419/179 239/414/179 237/416/179 233/420/179
f 240/413/180 236/421/180 234/422/180 238/415/180
o Cube.030
v -16.094360 5.491411 -6.697750
v -16.094360 4.665487 -6.697750
v -16.094360 5.491411 -16.861984
v -16.094360 4.665487 -16.861984
v -11.269206 5.491411 -6.697750
v -11.269206 4.665487 -6.697750
v -11.269206 5.491411 -16.861984
v -11.269206 4.665487 -16.861984
vn -1.0000 -0.0000 -0.0000
vn -0.0000 -0.0000 -1.0000
vn 1.0000 -0.0000 -0.0000
vn -0.0000 -0.0000 1.0000
vn -0.0000 1.0000 -0.0000
vn -0.0000 -1.0000 -0.0000
vt 0.375000 0.000000
vt 0.375000 0.250000
vt 0.625000 0.250000
vt 0.625000 0.000000
vt 0.375000 0.500000
vt 0.625000 0.500000
vt 0.375000 0.750000
vt 0.625000 0.750000
vt 0.375000 1.000000
vt 0.625000 1.000000
vt 0.125000 0.500000
vt 0.125000 0.750000
vt 0.875000 0.750000
vt 0.875000 0.500000
s 0
usemtl Material.031
f 241/423/181 243/424/181 244/425/181 242/426/181
f 243/424/182 247/427/182 248/428/182 244/425/182
f 247/427/183 245/429/183 246/430/183 248/428/183
f 245/429/184 241/431/184 242/432/184 246/430/184
f 243/433/185 241/434/185 245/429/185 247/427/185
f 248/428/186 246/430/186 242/435/186 244/436/186
o Cube.031
v -11.481470 0.106504 -15.775861
v -11.951910 0.111479 -15.775861
v -11.481470 0.106504 -16.318499
v -11.951910 0.111479 -16.318499
v -11.430702 4.907925 -15.775861
v -11.901142 4.912899 -15.775861
v -11.430702 4.907925 -16.318499
v -11.901142 4.912899 -16.318499
vn -0.0106 -0.9999 -0.0000
vn -0.0000 -0.0000 -1.0000
vn 0.0106 0.9999 -0.0000
vn -0.0000 -0.0000 1.0000
vn 0.9999 -0.0106 -0.0000
vn -0.9999 0.0106 -0.0000
vt 0.375000 0.000000
vt 0.625000 0.000000
vt 0.625000 0.250000
vt 0.375000 0.250000
vt 0.625000 0.500000
vt 0.375000 0.500000
vt 0.625000 0.750000
vt 0.375000 0.750000
vt 0.625000 1.000000
vt 0.375000 1.000000
vt 0.125000 0.500000
vt 0.125000 0.750000
vt 0.875000 0.500000
vt 0.875000 0.750000
s 0
usemtl Material.032
f 249/437/187 250/438/187 252/439/187 251/440/187
f 251/440/188 252/439/188 256/441/188 255/442/188
f 255/442/189 256/441/189 254/443/189 253/444/189
f 253/444/190 254/443/190 250/445/190 249/446/190
f 251/447/191 255/442/191 253/444/191 249/448/191
f 256/441/192 252/449/192 250/450/192 254/443/192
o Cube.032
v -11.481470 0.106504 -6.985446
v -11.951910 0.111479 -6.985446
v -11.481470 0.106504 -7.528085
v -11.951910 0.111479 -7.528085
v -11.430702 4.907925 -6.985446
v -11.901142 4.912899 -6.985446
v -11.430702 4.907925 -7.528085
v -11.901142 4.912899 -7.528085
vn -0.0106 -0.9999 -0.0000
vn -0.0000 -0.0000 -1.0000
vn 0.0106 0.9999 -0.0000
vn -0.0000 -0.0000 1.0000
vn 0.9999 -0.0106 -0.0000
vn -0.9999 0.0106 -0.0000
vt 0.375000 0.000000
vt 0.625000 0.000000
vt 0.625000 0.250000
vt 0.375000 0.250000
vt 0.625000 0.500000
vt 0.375000 0.500000
vt 0.625000 0.750000
vt 0.375000 0.750000
vt 0.625000 1.000000
vt 0.375000 1.000000
vt 0.125000 0.500000
vt 0.125000 0.750000
vt 0.875000 0.500000
vt 0.875000 0.750000
s 0
usemtl Material.033
f 257/451/193 258/452/193 260/453/193 259/454/193
f 259/454/194 260/453/194 264/455/194 263/456/194
f 263/456/195 264/455/195 262/457/195 261/458/195
f 261/458/196 262/457/196 258/459/196 257/460/196
f 259/461/197 263/456/197 261/458/197 257/462/197
f 264/455/198 260/463/198 258/464/198 262/457/198
o Cube.033
v -15.375091 0.106504 -6.985446
v -15.845531 0.111479 -6.985446
v -15.375091 0.106504 -7.528085
v -15.845531 0.111479 -7.528085
v -15.324323 4.907925 -6.985446
v -15.794763 4.912899 -6.985446
v -15.324323 4.907925 -7.528085
v -15.794763 4.912899 -7.528085
vn -0.0106 -0.9999 -0.0000
vn -0.0000 -0.0000 -1.0000
vn 0.0106 0.9999 -0.0000
vn -0.0000 -0.0000 1.0000
vn 0.9999 -0.0106 -0.0000
vn -0.9999 0.0106 -0.0000
vt 0.375000 0.000000
vt 0.625000 0.000000
vt 0.625000 0.250000
vt 0.375000 0.250000
vt 0.625000 0.500000
vt 0.375000 0.500000
vt 0.625000 0.750000
vt 0.375000 0.750000
vt 0.625000 1.000000
vt 0.375000 1.000000
vt 0.125000 0.500000
vt 0.125000 0.750000
vt 0.875000 0.500000
vt 0.875000 0.750000
s 0
usemtl Material.034
f 265/465/199 266/466/199 268/467/199 267/468/199
f 267/468/200 268/467/200 272/469/200 271/470/200
f 271/470/201 272/469/201 270/471/201 269/472/201
f 269/472/202 270/471/202 266/473/202 265/474/202
f 267/475/203 271/470/203 269/472/203 265/476/203
f 272/469/204 268/477/204 266/478/204 270/471/204
o Cube.034
v -15.375091 0.106504 -15.823710
v -15.845531 0.111479 -15.823710
v -15.375091 0.106504 -16.366348
v -15.845531 0.111479 -16.366348
v -15.324323 4.907925 -15.823710
v -15.794763 4.912899 -15.823710
v -15.324323 4.907925 -16.366348
v -15.794763 4.912899 -16.366348
vn -0.0106 -0.9999 -0.0000
vn -0.0000 -0.0000 -1.0000
vn 0.0106 0.9999 -0.0000
vn -0.0000 -0.0000 1.0000
vn 0.9999 -0.0106 -0.0000
vn -0.9999 0.0106 -0.0000
vt 0.375000 0.000000
vt 0.625000 0.000000
vt 0.625000 0.250000
vt 0.375000 0.250000
vt 0.625000 0.500000
vt 0.375000 0.500000
vt 0.625000 0.750000
vt 0.375000 0.750000
vt 0.625000 1.000000
vt 0.375000 1.000000
vt 0.125000 0.500000
vt 0.125000 0.750000
vt 0.875000 0.500000
vt 0.875000 0.750000
s 0
usemtl Material.035
f 273/479/205 274/480/205 276/481/205 275/482/205
f 275/482/206 276/481/206 280/483/206 279/484/206
f 279/484/207 280/483/207 278/485/207 277/486/207
f 277/486/208 278/485/208 274/487/208 273/488/208
f 275/489/209 279/484/209 277/486/209 273/490/209
f 280/483/210 276/491/210 274/492/210 278/485/210
o Cube.035
v -11.732423 2.755786 -7.066080
v -11.729734 2.285330 -7.066080
v -11.732423 2.755786 -7.447451
v -11.729734 2.285330 -7.447451
v -15.532202 2.734073 -7.066080
v -15.529513 2.263617 -7.066080
v -15.532202 2.734073 -7.447451
v -15.529513 2.263617 -7.447451
vn 1.0000 0.0057 -0.0000
vn -0.0000 -0.0000 -1.0000
vn -1.0000 -0.0057 -0.0000
vn -0.0000 -0.0000 1.0000
vn -0.0057 1.0000 -0.0000
vn 0.0057 -1.0000 -0.0000
vt 0.375000 0.000000
vt 0.625000 0.000000
vt 0.625000 0.250000
vt 0.375000 0.250000
vt 0.625000 0.500000
vt 0.375000 0.500000
vt 0.625000 0.750000
vt 0.375000 0.750000
vt 0.625000 1.000000
vt 0.375000 1.000000
vt 0.125000 0.500000
vt 0.125000 0.750000
vt 0.875000 0.500000
vt 0.875000 0.750000
s 0
usemtl Material.036
f 281/493/211 282/494/211 284/495/211 283/496/211
f 283/496/212 284/495/212 288/497/212 287/498/212
f 287/498/213 288/497/213 286/499/213 285/500/213
f 285/500/214 286/499/214 282/501/214 281/502/214
f 283/503/215 287/498/215 285/500/215 281/504/215
f 288/497/216 284/505/216 282/506/216 286/499/216
o Cube.036
v 1.842606 3.182728 -11.748158
v 1.842606 2.445309 -11.748158
v 1.842606 3.182728 -16.700691
v 1.842606 2.445309 -16.700691
v 6.667760 3.182728 -11.748158
v 6.667760 2.445309 -11.748158
v 6.667760 3.182728 -16.700691
v 6.667760 2.445309 -16.700691
vn -1.0000 -0.0000 -0.0000
vn -0.0000 -0.0000 -1.0000
vn 1.0000 -0.0000 -0.0000
vn -0.0000 -0.0000 1.0000
vn -0.0000 1.0000 -0.0000
vn -0.0000 -1.0000 -0.0000
vt 0.375000 0.000000
vt 0.375000 0.250000
vt 0.625000 0.250000
vt 0.625000 0.000000
vt 0.375000 0.500000
vt 0.625000 0.500000
vt 0.375000 0.750000
vt 0.625000 0.750000
vt 0.375000 1.000000
vt 0.625000 1.000000
vt 0.125000 0.500000
vt 0.125000 0.750000
vt 0.875000 0.750000
vt 0.875000 0.500000
s 0
usemtl Material.037
f 289/507/217 291/508/217 292/509/217 290/510/217
f 291/508/218 295/511/218 296/512/218 292/509/218
f 295/511/219 293/513/219 294/514/219 296/512/219
f 293/513/220 289/515/220 290/516/220 294/514/220
f 291/517/221 289/518/221 293/513/221 295/511/221
f 296/512/222 294/514/222 290/519/222 292/520/222
o Cube.037
v 2.596041 -0.237590 -15.449243
v 2.125618 -0.232616 -15.449243
v 2.596041 -0.237590 -15.991881
v 2.125618 -0.232616 -15.991881
v 2.627371 2.725458 -15.449243
v 2.156947 2.730433 -15.449243
v 2.627371 2.725458 -15.991881
v 2.156947 2.730433 -15.991881
vn -0.0106 -0.9999 -0.0000
vn -0.0000 -0.0000 -1.0000
vn 0.0106 0.9999 -0.0000
vn -0.0000 -0.0000 1.0000
vn 0.9999 -0.0106 -0.0000
vn -0.9999 0.0106 -0.0000
vt 0.375000 0.000000
vt 0.625000 0.000000
vt 0.625000 0.250000
vt 0.375000 0.250000
vt 0.625000 0.500000
vt 0.375000 0.500000
vt 0.625000 0.750000
vt 0.375000 0.750000
vt 0.625000 1.000000
vt 0.375000 1.000000
vt 0.125000 0.500000
vt 0.125000 0.750000
vt 0.875000 0.500000
vt 0.875000 0.750000
s 0
usemtl Material.038
f 297/521/223 298/522/223 300/523/223 299/524/223
f 299/524/224 300/523/224 304/525/224 303/526/224
f 303/526/225 304/525/225 302/527/225 301/528/225
f 301/528/226 302/527/226 298/529/226 297/530/226
f 299/531/227 303/526/227 301/528/227 297/532/227
f 304/525/228 300/533/228 298/534/228 302/527/228
o Cube.038
v 6.552199 -0.237590 -15.666268
v 6.081775 -0.232616 -15.666268
v 6.552199 -0.237590 -16.208906
v 6.081775 -0.232616 -16.208906
v 6.583529 2.725458 -15.666268
v 6.113105 2.730433 -15.666268
v 6.583529 2.725458 -16.208906
v 6.113105 2.730433 -16.208906
vn -0.0106 -0.9999 -0.0000
vn -0.0000 -0.0000 -1.0000
vn 0.0106 0.9999 -0.0000
vn -0.0000 -0.0000 1.0000
vn 0.9999 -0.0106 -0.0000
vn -0.9999 0.0106 -0.0000
vt 0.375000 0.000000
vt 0.625000 0.000000
vt 0.625000 0.250000
vt 0.375000 0.250000
vt 0.625000 0.500000
vt 0.375000 0.500000
vt 0.625000 0.750000
vt 0.375000 0.750000
vt 0.625000 1.000000
vt 0.375000 1.000000
vt 0.125000 0.500000
vt 0.125000 0.750000
vt 0.875000 0.500000
vt 0.875000 0.750000
s 0
usemtl Material.039
f 305/535/229 306/536/229 308/537/229 307/538/229
f 307/538/230 308/537/230 312/539/230 311/540/230
f 311/540/231 312/539/231 310/541/231 309/542/231
f 309/542/232 310/541/232 306/543/232 305/544/232
f 307/545/233 311/540/233 309/542/233 305/546/233
f 312/539/234 308/547/234 306/548/234 310/541/234
o Cube.039
v 6.552199 -0.237590 -12.445329
v 6.081775 -0.232616 -12.445329
v 6.552199 -0.237590 -12.987967
v 6.081775 -0.232616 -12.987967
v 6.583529 2.725458 -12.445329
v 6.113105 2.730433 -12.445329
v 6.583529 2.725458 -12.987967
v 6.113105 2.730433 -12.987967
vn -0.0106 -0.9999 -0.0000
vn -0.0000 -0.0000 -1.0000
vn 0.0106 0.9999 -0.0000
vn -0.0000 -0.0000 1.0000
vn 0.9999 -0.0106 -0.0000
vn -0.9999 0.0106 -0.0000
vt 0.375000 0.000000
vt 0.625000 0.000000
vt 0.625000 0.250000
vt 0.375000 0.250000
vt 0.625000 0.500000
vt 0.375000 0.500000
vt 0.625000 0.750000
vt 0.375000 0.750000
vt 0.625000 1.000000
vt 0.375000 1.000000
vt 0.125000 0.500000
vt 0.125000 0.750000
vt 0.875000 0.500000
vt 0.875000 0.750000
s 0
usemtl Material.040
f 313/549/235 314/550/235 316/551/235 315/552/235
f 315/552/236 316/551/236 320/553/236 319/554/236
f 319/554/237 320/553/237 318/555/237 317/556/237
f 317/556/238 318/555/238 314/557/238 313/558/238
f 315/559/239 319/554/239 317/556/239 313/560/239
f 320/553/240 316/561/240 314/562/240 318/555/240
o Cube.040
v 2.568157 -0.237590 -12.368148
v 2.097733 -0.232616 -12.368148
v 2.568157 -0.237590 -12.910787
v 2.097733 -0.232616 -12.910787
v 2.599487 2.725458 -12.368148
v 2.129063 2.730433 -12.368148
v 2.599487 2.725458 -12.910787
v 2.129063 2.730433 -12.910787
vn -0.0106 -0.9999 -0.0000
vn -0.0000 -0.0000 -1.0000
vn 0.0106 0.9999 -0.0000
vn -0.0000 -0.0000 1.0000
vn 0.9999 -0.0106 -0.0000
vn -0.9999 0.0106 -0.0000
vt 0.375000 0.000000
vt 0.625000 0.000000
vt 0.625000 0.250000
vt 0.375000 0.250000
vt 0.625000 0.500000
vt 0.375000 0.500000
vt 0.625000 0.750000
vt 0.375000 0.750000
vt 0.625000 1.000000
vt 0.375000 1.000000
vt 0.125000 0.500000
vt 0.125000 0.750000
vt 0.875000 0.500000
vt 0.875000 0.750000
s 0
usemtl Material.041
f 321/563/241 322/564/241 324/565/241 323/566/241
f 323/566/242 324/565/242 328/567/242 327/568/242
f 327/568/243 328/567/243 326/569/243 325/570/243
f 325/570/244 326/569/244 322/571/244 321/572/244
f 323/573/245 327/568/245 325/570/245 321/574/245
f 328/567/246 324/575/246 322/576/246 326/569/246
o Cube.041
v -9.239367 3.283615 -8.901220
v -9.239367 2.457691 -8.901220
v -11.415854 3.283615 -12.495630
v -11.415854 2.457691 -12.495630
v -5.830241 3.283615 -10.965513
v -5.830241 2.457691 -10.965513
v -8.006727 3.283615 -14.559923
v -8.006727 2.457691 -14.559923
vn -0.8554 -0.0000 0.5180
vn -0.5180 -0.0000 -0.8554
vn 0.8554 -0.0000 -0.5180
vn 0.5180 -0.0000 0.8554
vn -0.0000 1.0000 -0.0000
vn -0.0000 -1.0000 -0.0000
vt 0.375000 0.000000
vt 0.375000 0.250000
vt 0.625000 0.250000
vt 0.625000 0.000000
vt 0.375000 0.500000
vt 0.625000 0.500000
vt 0.375000 0.750000
vt 0.625000 0.750000
vt 0.375000 1.000000
vt 0.625000 1.000000
vt 0.125000 0.500000
vt 0.125000 0.750000
vt 0.875000 0.750000
vt 0.875000 0.500000
s 0
usemtl Material.042
f 329/577/247 331/578/247 332/579/247 330/580/247
f 331/578/248 335/581/248 336/582/248 332/579/248
f 335/581/249 333/583/249 334/584/249 336/582/249
f 333/583/250 329/585/250 330/586/250 334/584/250
f 331/587/251 329/588/251 333/583/251 335/581/251
f 336/582/252 334/584/252 330/589/252 332/590/252
o Cube.042
v -7.731337 -0.005886 -13.957832
v -8.133748 -0.000912 -13.714164
v -8.012403 -0.005886 -14.422007
v -8.414815 -0.000912 -14.178338
v -7.706721 2.715675 -13.972737
v -8.109133 2.720649 -13.729069
v -7.987788 2.715675 -14.436912
v -8.390200 2.720649 -14.193243
vn -0.0090 -0.9999 0.0055
vn -0.5180 -0.0000 -0.8554
vn 0.0090 0.9999 -0.0055
vn 0.5180 -0.0000 0.8554
vn 0.8554 -0.0106 -0.5179
vn -0.8554 0.0106 0.5179
vt 0.375000 0.000000
vt 0.625000 0.000000
vt 0.625000 0.250000
vt 0.375000 0.250000
vt 0.625000 0.500000
vt 0.375000 0.500000
vt 0.625000 0.750000
vt 0.375000 0.750000
vt 0.625000 1.000000
vt 0.375000 1.000000
vt 0.125000 0.500000
vt 0.125000 0.750000
vt 0.875000 0.500000
vt 0.875000 0.750000
s 0
usemtl Material.043
f 337/591/253 338/592/253 340/593/253 339/594/253
f 339/594/254 340/593/254 344/595/254 343/596/254
f 343/596/255 344/595/255 342/597/255 341/598/255
f 341/598/256 342/597/256 338/599/256 337/600/256
f 339/601/257 343/596/257 341/598/257 337/602/257
f 344/595/258 340/603/258 338/604/258 342/597/258
o Cube.043
v -5.910281 -0.005886 -10.912048
v -6.312693 -0.000912 -10.668380
v -6.191348 -0.005886 -11.376223
v -6.593760 -0.000912 -11.132554
v -5.885666 2.715675 -10.926953
v -6.288077 2.720649 -10.683285
v -6.166733 2.715675 -11.391128
v -6.569144 2.720649 -11.147459
vn -0.0090 -0.9999 0.0055
vn -0.5180 -0.0000 -0.8554
vn 0.0090 0.9999 -0.0055
vn 0.5180 -0.0000 0.8554
vn 0.8554 -0.0106 -0.5179
vn -0.8554 0.0106 0.5179
vt 0.375000 0.000000
vt 0.625000 0.000000
vt 0.625000 0.250000
vt 0.375000 0.250000
vt 0.625000 0.500000
vt 0.375000 0.500000
vt 0.625000 0.750000
vt 0.375000 0.750000
vt 0.625000 1.000000
vt 0.375000 1.000000
vt 0.125000 0.500000
vt 0.125000 0.750000
vt 0.875000 0.500000
vt 0.875000 0.750000
s 0
usemtl Material.044
f 345/605/259 346/606/259 348/607/259 347/608/259
f 347/608/260 348/607/260 352/609/260 351/610/260
f 351/610/261 352/609/261 350/611/261 349/612/261
f 349/612/262 350/611/262 346/613/262 345/614/262
f 347/615/263 351/610/263 349/612/263 345/616/263
f 352/609/264 348/617/264 346/618/264 350/611/264
o Cube.044
v -8.591518 -0.005886 -9.303470
v -8.993930 -0.000912 -9.059801
v -8.872585 -0.005886 -9.767644
v -9.274997 -0.000912 -9.523975
v -8.566903 2.715675 -9.318375
v -8.969315 2.720649 -9.074706
v -8.847970 2.715675 -9.782549
v -9.250381 2.720649 -9.538880
vn -0.0090 -0.9999 0.0055
vn -0.5180 -0.0000 -0.8554
vn 0.0090 0.9999 -0.0055
vn 0.5180 -0.0000 0.8554
vn 0.8554 -0.0106 -0.5179
vn -0.8554 0.0106 0.5179
vt 0.375000 0.000000
vt 0.625000 0.000000
vt 0.625000 0.250000
vt 0.375000 0.250000
vt 0.625000 0.500000
vt 0.375000 0.500000
vt 0.625000 0.750000
vt 0.375000 0.750000
vt 0.625000 1.000000
vt 0.375000 1.000000
vt 0.125000 0.500000
vt 0.125000 0.750000
vt 0.875000 0.500000
vt 0.875000 0.750000
s 0
usemtl Material.045
f 353/619/265 354/620/265 356/621/265 355/622/265
f 355/622/266 356/621/266 360/623/266 359/624/266
f 359/624/267 360/623/267 358/625/267 357/626/267
f 357/626/268 358/625/268 354/627/268 353/628/268
f 355/629/269 359/624/269 357/626/269 353/630/269
f 360/623/270 356/631/270 354/632/270 358/625/270
o Cube.045
v -10.555046 -0.005886 -12.373876
v -10.957458 -0.000912 -12.130207
v -10.836113 -0.005886 -12.838050
v -11.238524 -0.000912 -12.594381
v -10.530431 2.715675 -12.388781
v -10.932842 2.720649 -12.145112
v -10.811498 2.715675 -12.852955
v -11.213909 2.720649 -12.609286
vn -0.0090 -0.9999 0.0055
vn -0.5180 -0.0000 -0.8554
vn 0.0090 0.9999 -0.0055
vn 0.5180 -0.0000 0.8554
vn 0.8554 -0.0106 -0.5179
vn -0.8554 0.0106 0.5179
vt 0.375000 0.000000
vt 0.625000 0.000000
vt 0.625000 0.250000
vt 0.375000 0.250000
vt 0.625000 0.500000
vt 0.375000 0.500000
vt 0.625000 0.750000
vt 0.375000 0.750000
vt 0.625000 1.000000
vt 0.375000 1.000000
vt 0.125000 0.500000
vt 0.125000 0.750000
vt 0.875000 0.500000
vt 0.875000 0.750000
s 0
usemtl Material.046
f 361/633/271 362/634/271 364/635/271 363/636/271
f 363/636/272 364/635/272 368/637/272 367/638/272
f 367/638/273 368/637/273 366/639/273 365/640/273
f 365/640/274 366/639/274 362/641/274 361/642/274
f 363/643/275 367/638/275 365/640/275 361/644/275
f 368/637/276 364/645/276 362/646/276 366/639/276
o Cube.046
v -6.129613 3.963812 -10.784237
v -5.765719 3.959575 -11.004581
v -8.306100 3.963812 -14.378648
v -7.942206 3.959575 -14.598992
v -6.123914 4.632712 -10.787688
v -5.760020 4.628475 -11.008033
v -8.300401 4.632712 -14.382099
v -7.936507 4.628475 -14.602444
vn -0.0085 -1.0000 0.0052
vn -0.5180 -0.0000 -0.8554
vn 0.0085 1.0000 -0.0052
vn 0.5180 -0.0000 0.8554
vn -0.8554 0.0100 0.5179
vn 0.8554 -0.0100 -0.5179
vt 0.375000 0.000000
vt 0.375000 0.250000
vt 0.625000 0.250000
vt 0.625000 0.000000
vt 0.375000 0.500000
vt 0.625000 0.500000
vt 0.375000 0.750000
vt 0.625000 0.750000
vt 0.375000 1.000000
vt 0.625000 1.000000
vt 0.125000 0.500000
vt 0.125000 0.750000
vt 0.875000 0.750000
vt 0.875000 0.500000
s 0
usemtl Material.047
f 369/647/277 371/648/277 372/649/277 370/650/277
f 371/648/278 375/651/278 376/652/278 372/649/278
f 375/651/279 373/653/279 374/654/279 376/652/279
f 373/653/280 369/655/280 370/656/280 374/654/280
f 371/657/281 369/658/281 373/653/281 375/651/281
f 376/652/282 374/654/282 370/659/282 372/660/282
o Cube.047
v -6.132055 5.173464 -10.782759
v -5.768118 5.169226 -11.003130
v -8.308542 5.173464 -14.377169
v -7.944605 5.169226 -14.597540
v -6.121515 6.410491 -10.789141
v -5.757578 6.406252 -11.009512
v -8.298002 6.410491 -14.383551
v -7.934065 6.406252 -14.603922
vn -0.0085 -1.0000 0.0052
vn -0.5180 -0.0000 -0.8554
vn 0.0085 1.0000 -0.0052
vn 0.5180 -0.0000 0.8554
vn -0.8554 0.0100 0.5179
vn 0.8554 -0.0100 -0.5179
vt 0.375000 0.000000
vt 0.375000 0.250000
vt 0.625000 0.250000
vt 0.625000 0.000000
vt 0.375000 0.500000
vt 0.625000 0.500000
vt 0.375000 0.750000
vt 0.625000 0.750000
vt 0.375000 1.000000
vt 0.625000 1.000000
vt 0.125000 0.500000
vt 0.125000 0.750000
vt 0.875000 0.750000
vt 0.875000 0.500000
s 0
usemtl Material.048
f 377/661/283 379/662/283 380/663/283 378/664/283
f 379/662/284 383/665/284 384/666/284 380/663/284
f 383/665/285 381/667/285 382/668/285 384/666/285
f 381/667/286 377/669/286 378/670/286 382/668/286
f 379/671/287 377/672/287 381/667/287 383/665/287
f 384/666/288 382/668/288 378/673/288 380/674/288
o Cube.048
v -5.764925 3.065151 -11.007620
v -6.139226 3.069777 -10.780972
v -5.910440 3.065151 -11.247934
v -6.284741 3.069777 -11.021287
v -5.740310 5.786690 -11.022525
v -6.114611 5.791317 -10.795877
v -5.885825 5.786690 -11.262839
v -6.260126 5.791317 -11.036192
vn -0.0090 -0.9999 0.0055
vn -0.5180 -0.0000 -0.8554
vn 0.0090 0.9999 -0.0055
vn 0.5180 -0.0000 0.8554
vn 0.8554 -0.0106 -0.5179
vn -0.8554 0.0106 0.5179
vt 0.375000 0.000000
vt 0.625000 0.000000
vt 0.625000 0.250000
vt 0.375000 0.250000
vt 0.625000 0.500000
vt 0.375000 0.500000
vt 0.625000 0.750000
vt 0.375000 0.750000
vt 0.625000 1.000000
vt 0.375000 1.000000
vt 0.125000 0.500000
vt 0.125000 0.750000
vt 0.875000 0.500000
vt 0.875000 0.750000
s 0
usemtl Material.049
f 385/675/289 386/676/289 388/677/289 387/678/289
f 387/678/290 388/677/290 392/679/290 391/680/290
f 391/680/291 392/679/291 390/681/291 389/682/291
f 389/682/292 390/681/292 386/683/292 385/684/292
f 387/685/293 391/680/293 389/682/293 385/686/293
f 392/679/294 388/687/294 386/688/294 390/681/294
o table_and_chair
v -7.775005 3.064966 -14.359253
v -8.177417 3.069941 -14.115584
v -7.924345 3.064966 -14.605885
v -8.326756 3.069941 -14.362216
v -7.750390 5.786527 -14.374158
v -8.152802 5.791501 -14.130489
v -7.899730 5.786527 -14.620790
v -8.302141 5.791501 -14.377121
vn -0.0090 -0.9999 0.0055
vn -0.5180 -0.0000 -0.8554
vn 0.0090 0.9999 -0.0055
vn 0.5180 -0.0000 0.8554
vn 0.8554 -0.0106 -0.5179
vn -0.8554 0.0106 0.5179
vt 0.375000 0.000000
vt 0.625000 0.000000
vt 0.625000 0.250000
vt 0.375000 0.250000
vt 0.625000 0.500000
vt 0.375000 0.500000
vt 0.625000 0.750000
vt 0.375000 0.750000
vt 0.625000 1.000000
vt 0.375000 1.000000
vt 0.125000 0.500000
vt 0.125000 0.750000
vt 0.875000 0.500000
vt 0.875000 0.750000
s 0
usemtl Material.050
f 393/689/295 394/690/295 396/691/295 395/692/295
f 395/692/296 396/691/296 400/693/296 399/694/296
f 399/694/297 400/693/297 398/695/297 397/696/297
f 397/696/298 398/695/298 394/697/298 393/698/298
f 395/699/299 399/694/299 397/696/299 393/700/299
f 400/693/300 396/701/300 394/702/300 398/695/300
o Cube.050
v 4.587906 3.040821 -14.325836
v 4.587906 3.231941 -14.325836
v 5.768098 3.040821 -13.842464
v 5.768098 3.231941 -13.842464
v 5.324853 3.040821 -16.125149
v 5.324853 3.231941 -16.125149
v 6.505044 3.040821 -15.641777
v 6.505044 3.231941 -15.641777
vn -0.3790 -0.0000 0.9254
vn 0.9254 -0.0000 0.3790
vn 0.3790 -0.0000 -0.9254
vn -0.9254 -0.0000 -0.3790
vn -0.0000 -1.0000 -0.0000
vn -0.0000 1.0000 -0.0000
vt 0.375000 0.000000
vt 0.375000 0.250000
vt 0.625000 0.250000
vt 0.625000 0.000000
vt 0.375000 0.500000
vt 0.625000 0.500000
vt 0.375000 0.750000
vt 0.625000 0.750000
vt 0.375000 1.000000
vt 0.625000 1.000000
vt 0.125000 0.500000
vt 0.125000 0.750000
vt 0.875000 0.750000
vt 0.875000 0.500000
s 0
usemtl Material.051
f 401/703/301 403/704/301 404/705/301 402/706/301
f 403/704/302 407/707/302 408/708/302 404/705/302
f 407/707/303 405/709/303 406/710/303 408/708/303
f 405/709/304 401/711/304 402/712/304 406/710/304
f 403/713/305 401/714/305 405/709/305 407/707/305
f 408/708/306 406/710/306 402/715/306 404/716/306
o Cube.051
v 12.272434 4.505008 2.459257
v 12.272434 4.722896 2.459257
v 13.670494 4.505008 2.439156
v 13.670494 4.722896 2.439156
v 12.244480 4.505008 0.515037
v 12.244480 4.722896 0.515037
v 13.642540 4.505008 0.494936
v 13.642540 4.722896 0.494936
vn 0.0144 -0.0000 0.9999
vn 0.9999 -0.0000 -0.0144
vn -0.0144 -0.0000 -0.9999
vn -0.9999 -0.0000 0.0144
vn -0.0000 -1.0000 -0.0000
vn -0.0000 1.0000 -0.0000
vt 0.375000 0.000000
vt 0.375000 0.250000
vt 0.625000 0.250000
vt 0.625000 0.000000
vt 0.375000 0.500000
vt 0.625000 0.500000
vt 0.375000 0.750000
vt 0.625000 0.750000
vt 0.375000 1.000000
vt 0.625000 1.000000
vt 0.125000 0.500000
vt 0.125000 0.750000
vt 0.875000 0.750000
vt 0.875000 0.500000
s 0
usemtl Material.052
f 409/717/307 411/718/307 412/719/307 410/720/307
f 411/718/308 415/721/308 416/722/308 412/719/308
f 415/721/309 413/723/309 414/724/309 416/722/309
f 413/723/310 409/725/310 410/726/310 414/724/310
f 411/727/311 409/728/311 413/723/311 415/721/311
f 416/722/312 414/724/312 410/729/312 412/730/312
o Cube.052
v 12.557703 3.056322 4.734663
v 12.557703 3.274210 4.734663
v 13.955881 3.056322 4.714561
v 13.955881 3.274210 4.714561
v 12.520031 3.056322 2.114532
v 12.520031 3.274210 2.114532
v 13.918209 3.056322 2.094429
v 13.918209 3.274210 2.094429
vn 0.0144 -0.0000 0.9999
vn 0.9999 -0.0000 -0.0144
vn -0.0144 -0.0000 -0.9999
vn -0.9999 -0.0000 0.0144
vn -0.0000 -1.0000 -0.0000
vn -0.0000 1.0000 -0.0000
vt 0.375000 0.000000
vt 0.375000 0.250000
vt 0.625000 0.250000
vt 0.625000 0.000000
vt 0.375000 0.500000
vt 0.625000 0.500000
vt 0.375000 0.750000
vt 0.625000 0.750000
vt 0.375000 1.000000
vt 0.625000 1.000000
vt 0.125000 0.500000
vt 0.125000 0.750000
vt 0.875000 0.750000
vt 0.875000 0.500000
s 0
usemtl Material.053
f 417/731/313 419/732/313 420/733/313 418/734/313
f 419/732/314 423/735/314 424/736/314 420/733/314
f 423/735/315 421/737/315 422/738/315 424/736/315
f 421/737/316 417/739/316 418/740/316 422/738/316
f 419/741/317 417/742/317 421/737/317 423/735/317
f 424/736/318 422/738/318 418/743/318 420/744/318
o Cube.053
v 12.557703 3.365080 4.734663
v 12.557703 3.635895 4.734663
v 13.955881 3.365080 4.714561
v 13.955881 3.635895 4.714561
v 12.520031 3.365080 2.114532
v 12.520031 3.635895 2.114532
v 13.918209 3.365080 2.094429
v 13.918209 3.635895 2.094429
vn 0.0144 -0.0000 0.9999
vn 0.9999 -0.0000 -0.0144
vn -0.0144 -0.0000 -0.9999
vn -0.9999 -0.0000 0.0144
vn -0.0000 -1.0000 -0.0000
vn -0.0000 1.0000 -0.0000
vt 0.375000 0.000000
vt 0.375000 0.250000
vt 0.625000 0.250000
vt 0.625000 0.000000
vt 0.375000 0.500000
vt 0.625000 0.500000
vt 0.375000 0.750000
vt 0.625000 0.750000
vt 0.375000 1.000000
vt 0.625000 1.000000
vt 0.125000 0.500000
vt 0.125000 0.750000
vt 0.875000 0.750000
vt 0.875000 0.500000
s 0
usemtl Material.054
f 425/745/319 427/746/319 428/747/319 426/748/319
f 427/746/320 431/749/320 432/750/320 428/747/320
f 431/749/321 429/751/321 430/752/321 432/750/321
f 429/751/322 425/753/322 426/754/322 430/752/322
f 427/755/323 425/756/323 429/751/323 431/749/323
f 432/750/324 430/752/324 426/757/324 428/758/324
o Cube.054
v 12.557703 3.011163 1.219568
v 12.557703 3.383545 1.219568
v 13.955881 3.011163 1.199465
v 13.955881 3.383545 1.199465
v 12.520031 3.011163 -1.400564
v 12.520031 3.383545 -1.400564
v 13.918209 3.011163 -1.420667
v 13.918209 3.383545 -1.420667
vn 0.0144 -0.0000 0.9999
vn 0.9999 -0.0000 -0.0144
vn -0.0144 -0.0000 -0.9999
vn -0.9999 -0.0000 0.0144
vn -0.0000 -1.0000 -0.0000
vn -0.0000 1.0000 -0.0000
vt 0.375000 0.000000
vt 0.375000 0.250000
vt 0.625000 0.250000
vt 0.625000 0.000000
vt 0.375000 0.500000
vt 0.625000 0.500000
vt 0.375000 0.750000
vt 0.625000 0.750000
vt 0.375000 1.000000
vt 0.625000 1.000000
vt 0.125000 0.500000
vt 0.125000 0.750000
vt 0.875000 0.750000
vt 0.875000 0.500000
s 0
usemtl Material.055
f 433/759/325 435/760/325 436/761/325 434/762/325
f 435/760/326 439/763/326 440/764/326 436/761/326
f 439/763/327 437/765/327 438/766/327 440/764/327
f 437/765/328 433/767/328 434/768/328 438/766/328
f 435/769/329 433/770/329 437/765/329 439/763/329
f 440/764/330 438/766/330 434/771/330 436/772/330
o Cube.055
v 15.243203 10.739769 2.183955
v 15.243203 11.757154 2.183955
v 15.028052 10.739769 2.184248
v 15.028052 11.757154 2.184248
v 15.241899 10.739769 1.225048
v 15.241899 11.757154 1.225048
v 15.026748 10.739769 1.225340
v 15.026748 11.757154 1.225340
vn 0.0014 -0.0000 1.0000
vn -1.0000 -0.0000 0.0014
vn -0.0014 -0.0000 -1.0000
vn 1.0000 -0.0000 -0.0014
vn -0.0000 -1.0000 -0.0000
vn -0.0000 1.0000 -0.0000
vt 0.375000 0.000000
vt 0.625000 0.000000
vt 0.625000 0.250000
vt 0.375000 0.250000
vt 0.625000 0.500000
vt 0.375000 0.500000
vt 0.625000 0.750000
vt 0.375000 0.750000
vt 0.625000 1.000000
vt 0.375000 1.000000
vt 0.125000 0.500000
vt 0.125000 0.750000
vt 0.875000 0.500000
vt 0.875000 0.750000
s 0
usemtl Material.056
f 441/773/331 442/774/331 444/775/331 443/776/331
f 443/776/332 444/775/332 448/777/332 447/778/332
f 447/778/333 448/777/333 446/779/333 445/780/333
f 445/780/334 446/779/334 442/781/334 441/782/334
f 443/783/335 447/778/335 445/780/335 441/784/335
f 448/777/336 444/785/336 442/786/336 446/779/336
o Cube.056
v 15.242896 9.761160 1.958314
v 15.242896 10.916401 1.958314
v 15.027745 9.761160 1.958606
v 15.027745 10.916401 1.958606
v 15.242206 9.761160 1.450689
v 15.242206 10.916401 1.450689
v 15.027055 9.761160 1.450982
v 15.027055 10.916401 1.450982
vn 0.0014 -0.0000 1.0000
vn -1.0000 -0.0000 0.0014
vn -0.0014 -0.0000 -1.0000
vn 1.0000 -0.0000 -0.0014
vn -0.0000 -1.0000 -0.0000
vn -0.0000 1.0000 -0.0000
vt 0.375000 0.000000
vt 0.625000 0.000000
vt 0.625000 0.250000
vt 0.375000 0.250000
vt 0.625000 0.500000
vt 0.375000 0.500000
vt 0.625000 0.750000
vt 0.375000 0.750000
vt 0.625000 1.000000
vt 0.375000 1.000000
vt 0.125000 0.500000
vt 0.125000 0.750000
vt 0.875000 0.500000
vt 0.875000 0.750000
s 0
usemtl Material.057
f 449/787/337 450/788/337 452/789/337 451/790/337
f 451/790/338 452/789/338 456/791/338 455/792/338
f 455/792/339 456/791/339 454/793/339 453/794/339
f 453/794/340 454/793/340 450/795/340 449/796/340
f 451/797/341 455/792/341 453/794/341 449/798/341
f 456/791/342 452/799/342 450/800/342 454/793/342
o Cube.057
v 15.103321 10.083293 1.839058
v 15.103321 10.086747 2.994294
v 15.028404 10.083192 1.839058
v 15.028404 10.086645 2.994295
v 15.102631 10.590916 1.837540
v 15.102631 10.594369 2.992777
v 15.027714 10.590814 1.837541
v 15.027714 10.594268 2.992777
vn 0.0013 -1.0000 0.0030
vn -1.0000 -0.0014 -0.0000
vn -0.0014 1.0000 -0.0030
vn 1.0000 0.0014 -0.0000
vn -0.0000 -0.0030 -1.0000
vn -0.0000 0.0030 1.0000
vt 0.375000 0.000000
vt 0.625000 0.000000
vt 0.625000 0.250000
vt 0.375000 0.250000
vt 0.625000 0.500000
vt 0.375000 0.500000
vt 0.625000 0.750000
vt 0.375000 0.750000
vt 0.625000 1.000000
vt 0.375000 1.000000
vt 0.125000 0.500000
vt 0.125000 0.750000
vt 0.875000 0.500000
vt 0.875000 0.750000
s 0
usemtl Material.058
f 457/801/343 458/802/343 460/803/343 459/804/343
f 459/804/344 460/803/344 464/805/344 463/806/344
f 463/806/345 464/805/345 462/807/345 461/808/345
f 461/808/346 462/807/346 458/809/346 457/810/346
f 459/811/347 463/806/347 461/808/347 457/812/347
f 464/805/348 460/813/348 458/814/348 462/807/348
o Cube.058
v 15.103321 10.083293 0.668959
v 15.103321 10.086747 1.824195
v 15.028404 10.083192 0.668959
v 15.028404 10.086645 1.824196
v 15.102631 10.590916 0.667441
v 15.102631 10.594369 1.822678
v 15.027714 10.590814 0.667442
v 15.027714 10.594268 1.822678
vn 0.0014 -1.0000 0.0030
vn -1.0000 -0.0014 -0.0000
vn -0.0013 1.0000 -0.0030
vn 1.0000 0.0014 -0.0000
vn -0.0000 -0.0030 -1.0000
vn -0.0000 0.0030 1.0000
vt 0.375000 0.000000
vt 0.625000 0.000000
vt 0.625000 0.250000
vt 0.375000 0.250000
vt 0.625000 0.500000
vt 0.375000 0.500000
vt 0.625000 0.750000
vt 0.375000 0.750000
vt 0.625000 1.000000
vt 0.375000 1.000000
vt 0.125000 0.500000
vt 0.125000 0.750000
vt 0.875000 0.500000
vt 0.875000 0.750000
s 0
usemtl Material.059
f 465/815/349 466/816/349 468/817/349 467/818/349
f 467/818/350 468/817/350 472/819/350 471/820/350
f 471/820/351 472/819/351 470/821/351 469/822/351
f 469/822/352 470/821/352 466/823/352 465/824/352
f 467/825/353 471/820/353 469/822/353 465/826/353
f 472/819/354 468/827/354 466/828/354 470/821/354
o Cube.059
v -15.929842 0.292355 16.553041
v -15.929842 0.237465 16.553041
v -15.929842 0.292355 6.382017
v -15.929842 0.237465 6.382017
v -8.596584 0.292355 16.553041
v -8.596584 0.237465 16.553041
v -8.596584 0.292355 6.382017
v -8.596584 0.237465 6.382017
vn -1.0000 -0.0000 -0.0000
vn -0.0000 -0.0000 -1.0000
vn 1.0000 -0.0000 -0.0000
vn -0.0000 -0.0000 1.0000
vn -0.0000 1.0000 -0.0000
vn -0.0000 -1.0000 -0.0000
vt 0.375000 0.000000
vt 0.375000 0.250000
vt 0.625000 0.250000
vt 0.625000 0.000000
vt 0.375000 0.500000
vt 0.625000 0.500000
vt 0.375000 0.750000
vt 0.625000 0.750000
vt 0.375000 1.000000
vt 0.625000 1.000000
vt 0.125000 0.500000
vt 0.125000 0.750000
vt 0.875000 0.750000
vt 0.875000 0.500000
s 0
usemtl Material.060
f 473/829/355 475/830/355 476/831/355 474/832/355
f 475/830/356 479/833/356 480/834/356 476/831/356
f 479/833/357 477/835/357 478/836/357 480/834/357
f 477/835/358 473/837/358 474/838/358 478/836/358
f 475/839/359 473/840/359 477/835/359 479/833/359
f 480/834/360 478/836/360 474/841/360 476/842/360
o BézierCircle
v -9.590282 0.202474 10.827671
v -9.589763 0.202474 10.819948
v -9.588248 0.202474 10.812541
v -9.585808 0.202474 10.805517
v -9.582508 0.202474 10.798944
v -9.578418 0.202474 10.792891
v -9.573606 0.202474 10.787423
v -9.568138 0.202474 10.782611
v -9.562084 0.202474 10.778521
v -9.555511 0.202474 10.775221
v -9.548488 0.202474 10.772780
v -9.541080 0.202474 10.771266
v -9.533358 0.202474 10.770746
v -9.525635 0.202474 10.771266
v -9.518228 0.202474 10.772780
v -9.511204 0.202474 10.775221
v -9.504631 0.202474 10.778521
v -9.498577 0.202474 10.782611
v -9.493110 0.202474 10.787423
v -9.488297 0.202474 10.792891
v -9.484207 0.202474 10.798944
v -9.480907 0.202474 10.805517
v -9.478467 0.202474 10.812541
v -9.476953 0.202474 10.819948
v -9.476433 0.202474 10.827671
v -9.476953 0.202474 10.835394
v -9.478467 0.202474 10.842801
v -9.480907 0.202474 10.849825
v -9.484207 0.202474 10.856398
v -9.488297 0.202474 10.862452
v -9.493110 0.202474 10.867919
v -9.498577 0.202474 10.872731
v -9.504631 0.202474 10.876822
v -9.511204 0.202474 10.880121
v -9.518228 0.202474 10.882562
v -9.525635 0.202474 10.884076
v -9.533358 0.202474 10.884596
v -9.541080 0.202474 10.884076
v -9.548488 0.202474 10.882562
v -9.555511 0.202474 10.880121
v -9.562084 0.202474 10.876822
v -9.568138 0.202474 10.872731
v -9.573606 0.202474 10.867919
v -9.578418 0.202474 10.862452
v -9.582508 0.202474 10.856398
v -9.585808 0.202474 10.849825
v -9.588248 0.202474 10.842801
v -9.589763 0.202474 10.835394
l 481 482
l 482 483
l 483 484
l 484 485
l 485 486
l 486 487
l 487 488
l 488 489
l 489 490
l 490 491
l 491 492
l 492 493
l 493 494
l 494 495
l 495 496
l 496 497
l 497 498
l 498 499
l 499 500
l 500 501
l 501 502
l 502 503
l 503 504
l 504 505
l 505 506
l 506 507
l 507 508
l 508 509
l 509 510
l 510 511
l 511 512
l 512 513
l 513 514
l 514 515
l 515 516
l 516 517
l 517 518
l 518 519
l 519 520
l 520 521
l 521 522
l 522 523
l 523 524
l 524 525
l 525 526
l 526 527
l 527 528
l 528 481
o Cylinder
v -13.965614 0.208553 9.854163
v -13.965614 3.415401 9.854163
v -13.924384 0.208553 9.859899
v -13.924384 3.415401 9.859899
v -13.884738 0.208553 9.876884
v -13.884738 3.415401 9.876884
v -13.848200 0.208553 9.904467
v -13.848200 3.415401 9.904467
v -13.816174 0.208553 9.941586
v -13.816174 3.415401 9.941586
v -13.789890 0.208553 9.986817
v -13.789890 3.415401 9.986817
v -13.770361 0.208553 10.038421
v -13.770361 3.415401 10.038421
v -13.758334 0.208553 10.094414
v -13.758334 3.415401 10.094414
v -13.754273 0.208553 10.152645
v -13.754273 3.415401 10.152645
v -13.758334 0.208553 10.210876
v -13.758334 3.415401 10.210876
v -13.770361 0.208553 10.266870
v -13.770361 3.415401 10.266870
v -13.789890 0.208553 10.318473
v -13.789890 3.415401 10.318473
v -13.816174 0.208553 10.363704
v -13.816174 3.415401 10.363704
v -13.848200 0.208553 10.400824
v -13.848200 3.415401 10.400824
v -13.884738 0.208553 10.428407
v -13.884738 3.415401 10.428407
v -13.924384 0.208553 10.445392
v -13.924384 3.415401 10.445392
v -13.965614 0.208553 10.451127
v -13.965614 3.415401 10.451127
v -14.006845 0.208553 10.445392
v -14.006845 3.415401 10.445392
v -14.046491 0.208553 10.428407
v -14.046491 3.415401 10.428407
v -14.083029 0.208553 10.400824
v -14.083029 3.415401 10.400824
v -14.115055 0.208553 10.363704
v -14.115055 3.415401 10.363704
v -14.141338 0.208553 10.318473
v -14.141338 3.415401 10.318473
v -14.160868 0.208553 10.266870
v -14.160868 3.415401 10.266870
v -14.172894 0.208553 10.210876
v -14.172894 3.415401 10.210876
v -14.176955 0.208553 10.152645
v -14.176955 3.415401 10.152645
v -14.172894 0.208553 10.094414
v -14.172894 3.415401 10.094414
v -14.160868 0.208553 10.038421
v -14.160868 3.415401 10.038421
v -14.141338 0.208553 9.986817
v -14.141338 3.415401 9.986817
v -14.115055 0.208553 9.941586
v -14.115055 3.415401 9.941586
v -14.083029 0.208553 9.904467
v -14.083029 3.415401 9.904467
v -14.046491 0.208553 9.876884
v -14.046491 3.415401 9.876884
v -14.006845 0.208553 9.859899
v -14.006845 3.415401 9.859899
vn 0.1378 -0.0000 -0.9905
vn 0.3938 -0.0000 -0.9192
vn 0.6025 -0.0000 -0.7981
vn 0.7571 -0.0000 -0.6532
vn 0.8646 -0.0000 -0.5024
vn 0.9353 -0.0000 -0.3540
vn 0.9777 -0.0000 -0.2100
vn 0.9976 -0.0000 -0.0696
vn 0.9976 -0.0000 0.0696
vn 0.9777 -0.0000 0.2100
vn 0.9353 -0.0000 0.3540
vn 0.8646 -0.0000 0.5024
vn 0.7571 -0.0000 0.6532
vn 0.6025 -0.0000 0.7981
vn 0.3938 -0.0000 0.9192
vn 0.1378 -0.0000 0.9905
vn -0.1378 -0.0000 0.9905
vn -0.3938 -0.0000 0.9192
vn -0.6025 -0.0000 0.7981
vn -0.7571 -0.0000 0.6533
vn -0.8646 -0.0000 0.5024
vn -0.9353 -0.0000 0.3539
vn -0.9777 -0.0000 0.2100
vn -0.9976 -0.0000 0.0696
vn -0.9976 -0.0000 -0.0696
vn -0.9777 -0.0000 -0.2100
vn -0.9353 -0.0000 -0.3539
vn -0.8646 -0.0000 -0.5024
vn -0.7571 -0.0000 -0.6533
vn -0.6025 -0.0000 -0.7981
vn -0.0000 1.0000 -0.0000
vn -0.3938 -0.0000 -0.9192
vn -0.1378 -0.0000 -0.9905
vn -0.0000 -1.0000 -0.0000
vt 1.000000 0.500000
vt 1.000000 1.000000
vt 0.968750 1.000000
vt 0.968750 0.500000
vt 0.937500 1.000000
vt 0.937500 0.500000
vt 0.906250 1.000000
vt 0.906250 0.500000
vt 0.875000 1.000000
vt 0.875000 0.500000
vt 0.843750 1.000000
vt 0.843750 0.500000
vt 0.812500 1.000000
vt 0.812500 0.500000
vt 0.781250 1.000000
vt 0.781250 0.500000
vt 0.750000 1.000000
vt 0.750000 0.500000
vt 0.718750 1.000000
vt 0.718750 0.500000
vt 0.687500 1.000000
vt 0.687500 0.500000
vt 0.656250 1.000000
vt 0.656250 0.500000
vt 0.625000 1.000000
vt 0.625000 0.500000
vt 0.593750 1.000000
vt 0.593750 0.500000
vt 0.562500 1.000000
vt 0.562500 0.500000
vt 0.531250 1.000000
vt 0.531250 0.500000
vt 0.500000 1.000000
vt 0.500000 0.500000
vt 0.468750 1.000000
vt 0.468750 0.500000
vt 0.437500 1.000000
vt 0.437500 0.500000
vt 0.406250 1.000000
vt 0.406250 0.500000
vt 0.375000 1.000000
vt 0.375000 0.500000
vt 0.343750 1.000000
vt 0.343750 0.500000
vt 0.312500 1.000000
vt 0.312500 0.500000
vt 0.281250 1.000000
vt 0.281250 0.500000
vt 0.250000 1.000000
vt 0.250000 0.500000
vt 0.218750 1.000000
vt 0.218750 0.500000
vt 0.187500 1.000000
vt 0.187500 0.500000
vt 0.156250 1.000000
vt 0.156250 0.500000
vt 0.125000 1.000000
vt 0.125000 0.500000
vt 0.093750 1.000000
vt 0.093750 0.500000
vt 0.062500 1.000000
vt 0.062500 0.500000
vt 0.296822 0.485388
vt 0.250000 0.490000
vt 0.203178 0.485388
vt 0.158156 0.471731
vt 0.116663 0.449553
vt 0.080294 0.419706
vt 0.050447 0.383337
vt 0.028269 0.341844
vt 0.014612 0.296822
vt 0.010000 0.250000
vt 0.014612 0.203178
vt 0.028269 0.158156
vt 0.050447 0.116663
vt 0.080294 0.080294
vt 0.116663 0.050447
vt 0.158156 0.028269
vt 0.203178 0.014612
vt 0.250000 0.010000
vt 0.296822 0.014612
vt 0.341844 0.028269
vt 0.383337 0.050447
vt 0.419706 0.080294
vt 0.449553 0.116663
vt 0.471731 0.158156
vt 0.485388 0.203178
vt 0.490000 0.250000
vt 0.485388 0.296822
vt 0.471731 0.341844
vt 0.449553 0.383337
vt 0.419706 0.419706
vt 0.383337 0.449553
vt 0.341844 0.471731
vt 0.031250 1.000000
vt 0.031250 0.500000
vt 0.000000 1.000000
vt 0.000000 0.500000
vt 0.750000 0.490000
vt 0.796822 0.485388
vt 0.841844 0.471731
vt 0.883337 0.449553
vt 0.919706 0.419706
vt 0.949553 0.383337
vt 0.971731 0.341844
vt 0.985388 0.296822
vt 0.990000 0.250000
vt 0.985388 0.203178
vt 0.971731 0.158156
vt 0.949553 0.116663
vt 0.919706 0.080294
vt 0.883337 0.050447
vt 0.841844 0.028269
vt 0.796822 0.014612
vt 0.750000 0.010000
vt 0.703178 0.014612
vt 0.658156 0.028269
vt 0.616663 0.050447
vt 0.580294 0.080294
vt 0.550447 0.116663
vt 0.528269 0.158156
vt 0.514612 0.203178
vt 0.510000 0.250000
vt 0.514612 0.296822
vt 0.528269 0.341844
vt 0.550447 0.383337
vt 0.580294 0.419706
vt 0.616663 0.449553
vt 0.658156 0.471731
vt 0.703178 0.485388
s 0
usemtl Material.064
f 529/843/361 530/844/361 532/845/361 531/846/361
f 531/846/362 532/845/362 534/847/362 533/848/362
f 533/848/363 534/847/363 536/849/363 535/850/363
f 535/850/364 536/849/364 538/851/364 537/852/364
f 537/852/365 538/851/365 540/853/365 539/854/365
f 539/854/366 540/853/366 542/855/366 541/856/366
f 541/856/367 542/855/367 544/857/367 543/858/367
f 543/858/368 544/857/368 546/859/368 545/860/368
f 545/860/369 546/859/369 548/861/369 547/862/369
f 547/862/370 548/861/370 550/863/370 549/864/370
f 549/864/371 550/863/371 552/865/371 551/866/371
f 551/866/372 552/865/372 554/867/372 553/868/372
f 553/868/373 554/867/373 556/869/373 555/870/373
f 555/870/374 556/869/374 558/871/374 557/872/374
f 557/872/375 558/871/375 560/873/375 559/874/375
f 559/874/376 560/873/376 562/875/376 561/876/376
f 561/876/377 562/875/377 564/877/377 563/878/377
f 563/878/378 564/877/378 566/879/378 565/880/378
f 565/880/379 566/879/379 568/881/379 567/882/379
f 567/882/380 568/881/380 570/883/380 569/884/380
f 569/884/381 570/883/381 572/885/381 571/886/381
f 571/886/382 572/885/382 574/887/382 573/888/382
f 573/888/383 574/887/383 576/889/383 575/890/383
f 575/890/384 576/889/384 578/891/384 577/892/384
f 577/892/385 578/891/385 580/893/385 579/894/385
f 579/894/386 580/893/386 582/895/386 581/896/386
f 581/896/387 582/895/387 584/897/387 583/898/387
f 583/898/388 584/897/388 586/899/388 585/900/388
f 585/900/389 586/899/389 588/901/389 587/902/389
f 587/902/390 588/901/390 590/903/390 589/904/390
f 532/905/391 530/906/391 592/907/391 590/908/391 588/909/391 586/910/391 584/911/391 582/912/391 580/913/391 578/914/391 576/915/391 574/916/391 572/917/391 570/918/391 568/919/391 566/920/391 564/921/391 562/922/391 560/923/391 558/924/391 556/925/391 554/926/391 552/927/391 550/928/391 548/929/391 546/930/391 544/931/391 542/932/391 540/933/391 538/934/391 536/935/391 534/936/391
f 589/904/392 590/903/392 592/937/392 591/938/392
f 591/938/393 592/937/393 530/939/393 529/940/393
f 529/941/394 531/942/394 533/943/394 535/944/394 537/945/394 539/946/394 541/947/394 543/948/394 545/949/394 547/950/394 549/951/394 551/952/394 553/953/394 555/954/394 557/955/394 559/956/394 561/957/394 563/958/394 565/959/394 567/960/394 569/961/394 571/962/394 573/963/394 575/964/394 577/965/394 579/966/394 581/967/394 583/968/394 585/969/394 587/970/394 589/971/394 591/972/394
o Cylinder.001
v -14.054873 0.208553 12.128907
v -14.054873 3.415401 12.128907
v -14.013642 0.208553 12.134643
v -14.013642 3.415401 12.134643
v -13.973996 0.208553 12.151628
v -13.973996 3.415401 12.151628
v -13.937458 0.208553 12.179211
v -13.937458 3.415401 12.179211
v -13.905432 0.208553 12.216331
v -13.905432 3.415401 12.216331
v -13.879148 0.208553 12.261561
v -13.879148 3.415401 12.261561
v -13.859619 0.208553 12.313165
v -13.859619 3.415401 12.313165
v -13.847592 0.208553 12.369158
v -13.847592 3.415401 12.369158
v -13.843532 0.208553 12.427389
v -13.843532 3.415401 12.427389
v -13.847592 0.208553 12.485620
v -13.847592 3.415401 12.485620
v -13.859619 0.208553 12.541614
v -13.859619 3.415401 12.541614
v -13.879148 0.208553 12.593217
v -13.879148 3.415401 12.593217
v -13.905432 0.208553 12.638448
v -13.905432 3.415401 12.638448
v -13.937458 0.208553 12.675568
v -13.937458 3.415401 12.675568
v -13.973996 0.208553 12.703151
v -13.973996 3.415401 12.703151
v -14.013642 0.208553 12.720136
v -14.013642 3.415401 12.720136
v -14.054873 0.208553 12.725871
v -14.054873 3.415401 12.725871
v -14.096103 0.208553 12.720136
v -14.096103 3.415401 12.720136
v -14.135749 0.208553 12.703151
v -14.135749 3.415401 12.703151
v -14.172287 0.208553 12.675568
v -14.172287 3.415401 12.675568
v -14.204313 0.208553 12.638448
v -14.204313 3.415401 12.638448
v -14.230597 0.208553 12.593217
v -14.230597 3.415401 12.593217
v -14.250126 0.208553 12.541614
v -14.250126 3.415401 12.541614
v -14.262153 0.208553 12.485620
v -14.262153 3.415401 12.485620
v -14.266213 0.208553 12.427389
v -14.266213 3.415401 12.427389
v -14.262153 0.208553 12.369158
v -14.262153 3.415401 12.369158
v -14.250126 0.208553 12.313165
v -14.250126 3.415401 12.313165
v -14.230597 0.208553 12.261561
v -14.230597 3.415401 12.261561
v -14.204313 0.208553 12.216331
v -14.204313 3.415401 12.216331
v -14.172287 0.208553 12.179211
v -14.172287 3.415401 12.179211
v -14.135749 0.208553 12.151628
v -14.135749 3.415401 12.151628
v -14.096103 0.208553 12.134643
v -14.096103 3.415401 12.134643
vn 0.1378 -0.0000 -0.9905
vn 0.3938 -0.0000 -0.9192
vn 0.6025 -0.0000 -0.7981
vn 0.7571 -0.0000 -0.6532
vn 0.8646 -0.0000 -0.5024
vn 0.9353 -0.0000 -0.3539
vn 0.9777 -0.0000 -0.2100
vn 0.9976 -0.0000 -0.0696
vn 0.9976 -0.0000 0.0696
vn 0.9777 -0.0000 0.2100
vn 0.9353 -0.0000 0.3539
vn 0.8646 -0.0000 0.5024
vn 0.7571 -0.0000 0.6532
vn 0.6025 -0.0000 0.7981
vn 0.3938 -0.0000 0.9192
vn 0.1378 -0.0000 0.9905
vn -0.1378 -0.0000 0.9905
vn -0.3938 -0.0000 0.9192
vn -0.6025 -0.0000 0.7981
vn -0.7571 -0.0000 0.6532
vn -0.8646 -0.0000 0.5024
vn -0.9353 -0.0000 0.3540
vn -0.9777 -0.0000 0.2100
vn -0.9976 -0.0000 0.0696
vn -0.9976 -0.0000 -0.0696
vn -0.9777 -0.0000 -0.2100
vn -0.9353 -0.0000 -0.3540
vn -0.8646 -0.0000 -0.5024
vn -0.7571 -0.0000 -0.6532
vn -0.6025 -0.0000 -0.7981
vn -0.0000 1.0000 -0.0000
vn -0.3938 -0.0000 -0.9192
vn -0.1378 -0.0000 -0.9905
vn -0.0000 -1.0000 -0.0000
vt 1.000000 0.500000
vt 1.000000 1.000000
vt 0.968750 1.000000
vt 0.968750 0.500000
vt 0.937500 1.000000
vt 0.937500 0.500000
vt 0.906250 1.000000
vt 0.906250 0.500000
vt 0.875000 1.000000
vt 0.875000 0.500000
vt 0.843750 1.000000
vt 0.843750 0.500000
vt 0.812500 1.000000
vt 0.812500 0.500000
vt 0.781250 1.000000
vt 0.781250 0.500000
vt 0.750000 1.000000
vt 0.750000 0.500000
vt 0.718750 1.000000
vt 0.718750 0.500000
vt 0.687500 1.000000
vt 0.687500 0.500000
vt 0.656250 1.000000
vt 0.656250 0.500000
vt 0.625000 1.000000
vt 0.625000 0.500000
vt 0.593750 1.000000
vt 0.593750 0.500000
vt 0.562500 1.000000
vt 0.562500 0.500000
vt 0.531250 1.000000
vt 0.531250 0.500000
vt 0.500000 1.000000
vt 0.500000 0.500000
vt 0.468750 1.000000
vt 0.468750 0.500000
vt 0.437500 1.000000
vt 0.437500 0.500000
vt 0.406250 1.000000
vt 0.406250 0.500000
vt 0.375000 1.000000
vt 0.375000 0.500000
vt 0.343750 1.000000
vt 0.343750 0.500000
vt 0.312500 1.000000
vt 0.312500 0.500000
vt 0.281250 1.000000
vt 0.281250 0.500000
vt 0.250000 1.000000
vt 0.250000 0.500000
vt 0.218750 1.000000
vt 0.218750 0.500000
vt 0.187500 1.000000
vt 0.187500 0.500000
vt 0.156250 1.000000
vt 0.156250 0.500000
vt 0.125000 1.000000
vt 0.125000 0.500000
vt 0.093750 1.000000
vt 0.093750 0.500000
vt 0.062500 1.000000
vt 0.062500 0.500000
vt 0.296822 0.485388
vt 0.250000 0.490000
vt 0.203178 0.485388
vt 0.158156 0.471731
vt 0.116663 0.449553
vt 0.080294 0.419706
vt 0.050447 0.383337
vt 0.028269 0.341844
vt 0.014612 0.296822
vt 0.010000 0.250000
vt 0.014612 0.203178
vt 0.028269 0.158156
vt 0.050447 0.116663
vt 0.080294 0.080294
vt 0.116663 0.050447
vt 0.158156 0.028269
vt 0.203178 0.014612
vt 0.250000 0.010000
vt 0.296822 0.014612
vt 0.341844 0.028269
vt 0.383337 0.050447
vt 0.419706 0.080294
vt 0.449553 0.116663
vt 0.471731 0.158156
vt 0.485388 0.203178
vt 0.490000 0.250000
vt 0.485388 0.296822
vt 0.471731 0.341844
vt 0.449553 0.383337
vt 0.419706 0.419706
vt 0.383337 0.449553
vt 0.341844 0.471731
vt 0.031250 1.000000
vt 0.031250 0.500000
vt 0.000000 1.000000
vt 0.000000 0.500000
vt 0.750000 0.490000
vt 0.796822 0.485388
vt 0.841844 0.471731
vt 0.883337 0.449553
vt 0.919706 0.419706
vt 0.949553 0.383337
vt 0.971731 0.341844
vt 0.985388 0.296822
vt 0.990000 0.250000
vt 0.985388 0.203178
vt 0.971731 0.158156
vt 0.949553 0.116663
vt 0.919706 0.080294
vt 0.883337 0.050447
vt 0.841844 0.028269
vt 0.796822 0.014612
vt 0.750000 0.010000
vt 0.703178 0.014612
vt 0.658156 0.028269
vt 0.616663 0.050447
vt 0.580294 0.080294
vt 0.550447 0.116663
vt 0.528269 0.158156
vt 0.514612 0.203178
vt 0.510000 0.250000
vt 0.514612 0.296822
vt 0.528269 0.341844
vt 0.550447 0.383337
vt 0.580294 0.419706
vt 0.616663 0.449553
vt 0.658156 0.471731
vt 0.703178 0.485388
s 0
usemtl Material.063
f 593/973/395 594/974/395 596/975/395 595/976/395
f 595/976/396 596/975/396 598/977/396 597/978/396
f 597/978/397 598/977/397 600/979/397 599/980/397
f 599/980/398 600/979/398 602/981/398 601/982/398
f 601/982/399 602/981/399 604/983/399 603/984/399
f 603/984/400 604/983/400 606/985/400 605/986/400
f 605/986/401 606/985/401 608/987/401 607/988/401
f 607/988/402 608/987/402 610/989/402 609/990/402
f 609/990/403 610/989/403 612/991/403 611/992/403
f 611/992/404 612/991/404 614/993/404 613/994/404
f 613/994/405 614/993/405 616/995/405 615/996/405
f 615/996/406 616/995/406 618/997/406 617/998/406
f 617/998/407 618/997/407 620/999/407 619/1000/407
f 619/1000/408 620/999/408 622/1001/408 621/1002/408
f 621/1002/409 622/1001/409 624/1003/409 623/1004/409
f 623/1004/410 624/1003/410 626/1005/410 625/1006/410
f 625/1006/411 626/1005/411 628/1007/411 627/1008/411
f 627/1008/412 628/1007/412 630/1009/412 629/1010/412
f 629/1010/413 630/1009/413 632/1011/413 631/1012/413
f 631/1012/414 632/1011/414 634/1013/414 633/1014/414
f 633/1014/415 634/1013/415 636/1015/415 635/1016/415
f 635/1016/416 636/1015/416 638/1017/416 637/1018/416
f 637/1018/417 638/1017/417 640/1019/417 639/1020/417
f 639/1020/418 640/1019/418 642/1021/418 641/1022/418
f 641/1022/419 642/1021/419 644/1023/419 643/1024/419
f 643/1024/420 644/1023/420 646/1025/420 645/1026/420
f 645/1026/421 646/1025/421 648/1027/421 647/1028/421
f 647/1028/422 648/1027/422 650/1029/422 649/1030/422
f 649/1030/423 650/1029/423 652/1031/423 651/1032/423
f 651/1032/424 652/1031/424 654/1033/424 653/1034/424
f 596/1035/425 594/1036/425 656/1037/425 654/1038/425 652/1039/425 650/1040/425 648/1041/425 646/1042/425 644/1043/425 642/1044/425 640/1045/425 638/1046/425 636/1047/425 634/1048/425 632/1049/425 630/1050/425 628/1051/425 626/1052/425 624/1053/425 622/1054/425 620/1055/425 618/1056/425 616/1057/425 614/1058/425 612/1059/425 610/1060/425 608/1061/425 606/1062/425 604/1063/425 602/1064/425 600/1065/425 598/1066/425
f 653/1034/426 654/1033/426 656/1067/426 655/1068/426
f 655/1068/427 656/1067/427 594/1069/427 593/1070/427
f 593/1071/428 595/1072/428 597/1073/428 599/1074/428 601/1075/428 603/1076/428 605/1077/428 607/1078/428 609/1079/428 611/1080/428 613/1081/428 615/1082/428 617/1083/428 619/1084/428 621/1085/428 623/1086/428 625/1087/428 627/1088/428 629/1089/428 631/1090/428 633/1091/428 635/1092/428 637/1093/428 639/1094/428 641/1095/428 643/1096/428 645/1097/428 647/1098/428 649/1099/428 651/1100/428 653/1101/428 655/1102/428
o Cylinder.002
v -15.070368 0.247894 10.945650
v -15.070368 2.643905 10.945650
v -15.029138 0.247894 10.951385
v -15.029138 2.643905 10.951385
v -14.989491 0.247894 10.968370
v -14.989491 2.643905 10.968370
v -14.952953 0.247894 10.995954
v -14.952953 2.643905 10.995954
v -14.920927 0.247894 11.033073
v -14.920927 2.643905 11.033073
v -14.894644 0.247894 11.078304
v -14.894644 2.643905 11.078304
v -14.875114 0.247894 11.129908
v -14.875114 2.643905 11.129908
v -14.863088 0.247894 11.185901
v -14.863088 2.643905 11.185901
v -14.859027 0.247894 11.244132
v -14.859027 2.643905 11.244132
v -14.863088 0.247894 11.302363
v -14.863088 2.643905 11.302363
v -14.875114 0.247894 11.358356
v -14.875114 2.643905 11.358356
v -14.894644 0.247894 11.409960
v -14.894644 2.643905 11.409960
v -14.920927 0.247894 11.455191
v -14.920927 2.643905 11.455191
v -14.952953 0.247894 11.492311
v -14.952953 2.643905 11.492311
v -14.989491 0.247894 11.519894
v -14.989491 2.643905 11.519894
v -15.029138 0.247894 11.536879
v -15.029138 2.643905 11.536879
v -15.070368 0.247894 11.542614
v -15.070368 2.643905 11.542614
v -15.111598 0.247894 11.536879
v -15.111598 2.643905 11.536879
v -15.151244 0.247894 11.519894
v -15.151244 2.643905 11.519894
v -15.187782 0.247894 11.492311
v -15.187782 2.643905 11.492311
v -15.219809 0.247894 11.455191
v -15.219809 2.643905 11.455191
v -15.246092 0.247894 11.409960
v -15.246092 2.643905 11.409960
v -15.265621 0.247894 11.358356
v -15.265621 2.643905 11.358356
v -15.277648 0.247894 11.302363
v -15.277648 2.643905 11.302363
v -15.281709 0.247894 11.244132
v -15.281709 2.643905 11.244132
v -15.277648 0.247894 11.185901
v -15.277648 2.643905 11.185901
v -15.265621 0.247894 11.129908
v -15.265621 2.643905 11.129908
v -15.246092 0.247894 11.078304
v -15.246092 2.643905 11.078304
v -15.219809 0.247894 11.033073
v -15.219809 2.643905 11.033073
v -15.187782 0.247894 10.995954
v -15.187782 2.643905 10.995954
v -15.151244 0.247894 10.968370
v -15.151244 2.643905 10.968370
v -15.111598 0.247894 10.951385
v -15.111598 2.643905 10.951385
vn 0.1378 -0.0000 -0.9905
vn 0.3938 -0.0000 -0.9192
vn 0.6025 -0.0000 -0.7981
vn 0.7571 -0.0000 -0.6533
vn 0.8646 -0.0000 -0.5024
vn 0.9353 -0.0000 -0.3539
vn 0.9777 -0.0000 -0.2100
vn 0.9976 -0.0000 -0.0696
vn 0.9976 -0.0000 0.0696
vn 0.9777 -0.0000 0.2100
vn 0.9353 -0.0000 0.3539
vn 0.8646 -0.0000 0.5024
vn 0.7571 -0.0000 0.6533
vn 0.6025 -0.0000 0.7981
vn 0.3938 -0.0000 0.9192
vn 0.1378 -0.0000 0.9905
vn -0.1378 -0.0000 0.9905
vn -0.3938 -0.0000 0.9192
vn -0.6025 -0.0000 0.7981
vn -0.7571 -0.0000 0.6533
vn -0.8646 -0.0000 0.5024
vn -0.9353 -0.0000 0.3540
vn -0.9777 -0.0000 0.2100
vn -0.9976 -0.0000 0.0696
vn -0.9976 -0.0000 -0.0696
vn -0.9777 -0.0000 -0.2100
vn -0.9353 -0.0000 -0.3540
vn -0.8646 -0.0000 -0.5024
vn -0.7571 -0.0000 -0.6533
vn -0.6025 -0.0000 -0.7981
vn -0.0000 1.0000 -0.0000
vn -0.3938 -0.0000 -0.9192
vn -0.1378 -0.0000 -0.9905
vn -0.0000 -1.0000 -0.0000
vt 1.000000 0.500000
vt 1.000000 1.000000
vt 0.968750 1.000000
vt 0.968750 0.500000
vt 0.937500 1.000000
vt 0.937500 0.500000
vt 0.906250 1.000000
vt 0.906250 0.500000
vt 0.875000 1.000000
vt 0.875000 0.500000
vt 0.843750 1.000000
vt 0.843750 0.500000
vt 0.812500 1.000000
vt 0.812500 0.500000
vt 0.781250 1.000000
vt 0.781250 0.500000
vt 0.750000 1.000000
vt 0.750000 0.500000
vt 0.718750 1.000000
vt 0.718750 0.500000
vt 0.687500 1.000000
vt 0.687500 0.500000
vt 0.656250 1.000000
vt 0.656250 0.500000
vt 0.625000 1.000000
vt 0.625000 0.500000
vt 0.593750 1.000000
vt 0.593750 0.500000
vt 0.562500 1.000000
vt 0.562500 0.500000
vt 0.531250 1.000000
vt 0.531250 0.500000
vt 0.500000 1.000000
vt 0.500000 0.500000
vt 0.468750 1.000000
vt 0.468750 0.500000
vt 0.437500 1.000000
vt 0.437500 0.500000
vt 0.406250 1.000000
vt 0.406250 0.500000
vt 0.375000 1.000000
vt 0.375000 0.500000
vt 0.343750 1.000000
vt 0.343750 0.500000
vt 0.312500 1.000000
vt 0.312500 0.500000
vt 0.281250 1.000000
vt 0.281250 0.500000
vt 0.250000 1.000000
vt 0.250000 0.500000
vt 0.218750 1.000000
vt 0.218750 0.500000
vt 0.187500 1.000000
vt 0.187500 0.500000
vt 0.156250 1.000000
vt 0.156250 0.500000
vt 0.125000 1.000000
vt 0.125000 0.500000
vt 0.093750 1.000000
vt 0.093750 0.500000
vt 0.062500 1.000000
vt 0.062500 0.500000
vt 0.296822 0.485388
vt 0.250000 0.490000
vt 0.203178 0.485388
vt 0.158156 0.471731
vt 0.116663 0.449553
vt 0.080294 0.419706
vt 0.050447 0.383337
vt 0.028269 0.341844
vt 0.014612 0.296822
vt 0.010000 0.250000
vt 0.014612 0.203178
vt 0.028269 0.158156
vt 0.050447 0.116663
vt 0.080294 0.080294
vt 0.116663 0.050447
vt 0.158156 0.028269
vt 0.203178 0.014612
vt 0.250000 0.010000
vt 0.296822 0.014612
vt 0.341844 0.028269
vt 0.383337 0.050447
vt 0.419706 0.080294
vt 0.449553 0.116663
vt 0.471731 0.158156
vt 0.485388 0.203178
vt 0.490000 0.250000
vt 0.485388 0.296822
vt 0.471731 0.341844
vt 0.449553 0.383337
vt 0.419706 0.419706
vt 0.383337 0.449553
vt 0.341844 0.471731
vt 0.031250 1.000000
vt 0.031250 0.500000
vt 0.000000 1.000000
vt 0.000000 0.500000
vt 0.750000 0.490000
vt 0.796822 0.485388
vt 0.841844 0.471731
vt 0.883337 0.449553
vt 0.919706 0.419706
vt 0.949553 0.383337
vt 0.971731 0.341844
vt 0.985388 0.296822
vt 0.990000 0.250000
vt 0.985388 0.203178
vt 0.971731 0.158156
vt 0.949553 0.116663
vt 0.919706 0.080294
vt 0.883337 0.050447
vt 0.841844 0.028269
vt 0.796822 0.014612
vt 0.750000 0.010000
vt 0.703178 0.014612
vt 0.658156 0.028269
vt 0.616663 0.050447
vt 0.580294 0.080294
vt 0.550447 0.116663
vt 0.528269 0.158156
vt 0.514612 0.203178
vt 0.510000 0.250000
vt 0.514612 0.296822
vt 0.528269 0.341844
vt 0.550447 0.383337
vt 0.580294 0.419706
vt 0.616663 0.449553
vt 0.658156 0.471731
vt 0.703178 0.485388
s 0
usemtl Material.065
f 657/1103/429 658/1104/429 660/1105/429 659/1106/429
f 659/1106/430 660/1105/430 662/1107/430 661/1108/430
f 661/1108/431 662/1107/431 664/1109/431 663/1110/431
f 663/1110/432 664/1109/432 666/1111/432 665/1112/432
f 665/1112/433 666/1111/433 668/1113/433 667/1114/433
f 667/1114/434 668/1113/434 670/1115/434 669/1116/434
f 669/1116/435 670/1115/435 672/1117/435 671/1118/435
f 671/1118/436 672/1117/436 674/1119/436 673/1120/436
f 673/1120/437 674/1119/437 676/1121/437 675/1122/437
f 675/1122/438 676/1121/438 678/1123/438 677/1124/438
f 677/1124/439 678/1123/439 680/1125/439 679/1126/439
f 679/1126/440 680/1125/440 682/1127/440 681/1128/440
f 681/1128/441 682/1127/441 684/1129/441 683/1130/441
f 683/1130/442 684/1129/442 686/1131/442 685/1132/442
f 685/1132/443 686/1131/443 688/1133/443 687/1134/443
f 687/1134/444 688/1133/444 690/1135/444 689/1136/444
f 689/1136/445 690/1135/445 692/1137/445 691/1138/445
f 691/1138/446 692/1137/446 694/1139/446 693/1140/446
f 693/1140/447 694/1139/447 696/1141/447 695/1142/447
f 695/1142/448 696/1141/448 698/1143/448 697/1144/448
f 697/1144/449 698/1143/449 700/1145/449 699/1146/449
f 699/1146/450 700/1145/450 702/1147/450 701/1148/450
f 701/1148/451 702/1147/451 704/1149/451 703/1150/451
f 703/1150/452 704/1149/452 706/1151/452 705/1152/452
f 705/1152/453 706/1151/453 708/1153/453 707/1154/453
f 707/1154/454 708/1153/454 710/1155/454 709/1156/454
f 709/1156/455 710/1155/455 712/1157/455 711/1158/455
f 711/1158/456 712/1157/456 714/1159/456 713/1160/456
f 713/1160/457 714/1159/457 716/1161/457 715/1162/457
f 715/1162/458 716/1161/458 718/1163/458 717/1164/458
f 660/1165/459 658/1166/459 720/1167/459 718/1168/459 716/1169/459 714/1170/459 712/1171/459 710/1172/459 708/1173/459 706/1174/459 704/1175/459 702/1176/459 700/1177/459 698/1178/459 696/1179/459 694/1180/459 692/1181/459 690/1182/459 688/1183/459 686/1184/459 684/1185/459 682/1186/459 680/1187/459 678/1188/459 676/1189/459 674/1190/459 672/1191/459 670/1192/459 668/1193/459 666/1194/459 664/1195/459 662/1196/459
f 717/1164/460 718/1163/460 720/1197/460 719/1198/460
f 719/1198/461 720/1197/461 658/1199/461 657/1200/461
f 657/1201/462 659/1202/462 661/1203/462 663/1204/462 665/1205/462 667/1206/462 669/1207/462 671/1208/462 673/1209/462 675/1210/462 677/1211/462 679/1212/462 681/1213/462 683/1214/462 685/1215/462 687/1216/462 689/1217/462 691/1218/462 693/1219/462 695/1220/462 697/1221/462 699/1222/462 701/1223/462 703/1224/462 705/1225/462 707/1226/462 709/1227/462 711/1228/462 713/1229/462 715/1230/462 717/1231/462 719/1232/462
o Cube.060
v -15.600245 3.512973 12.751605
v -15.600245 2.993295 12.751605
v -15.600245 3.512973 7.842868
v -15.600245 2.993295 7.842868
v -13.478642 3.512973 12.751605
v -13.478642 2.993295 12.751605
v -13.478642 3.512973 7.842868
v -13.478642 2.993295 7.842868
vn -1.0000 -0.0000 -0.0000
vn -0.0000 -0.0000 -1.0000
vn 1.0000 -0.0000 -0.0000
vn -0.0000 -0.0000 1.0000
vn -0.0000 1.0000 -0.0000
vn -0.0000 -1.0000 -0.0000
vt 0.375000 0.000000
vt 0.375000 0.250000
vt 0.625000 0.250000
vt 0.625000 0.000000
vt 0.375000 0.500000
vt 0.625000 0.500000
vt 0.375000 0.750000
vt 0.625000 0.750000
vt 0.375000 1.000000
vt 0.625000 1.000000
vt 0.125000 0.500000
vt 0.125000 0.750000
vt 0.875000 0.750000
vt 0.875000 0.500000
s 0
usemtl Material.066
f 721/1233/463 723/1234/463 724/1235/463 722/1236/463
f 723/1234/464 727/1237/464 728/1238/464 724/1235/464
f 727/1237/465 725/1239/465 726/1240/465 728/1238/465
f 725/1239/466 721/1241/466 722/1242/466 726/1240/466
f 723/1243/467 721/1244/467 725/1239/467 727/1237/467
f 728/1238/468 726/1240/468 722/1245/468 724/1246/468
o Cube.061
v -13.956269 3.517207 12.823934
v -13.437108 3.529089 12.824148
v -13.954157 3.513272 7.915199
v -13.434996 3.525155 7.915413
v -13.984398 4.746234 12.822937
v -13.465237 4.758117 12.823151
v -13.982285 4.742300 7.914202
v -13.463124 4.754182 7.914416
vn 0.0229 -0.9997 0.0008
vn 0.0004 -0.0008 -1.0000
vn -0.0229 0.9997 -0.0008
vn -0.0004 0.0008 1.0000
vn -0.9997 -0.0229 -0.0004
vn 0.9997 0.0229 0.0004
vt 0.375000 0.000000
vt 0.375000 0.250000
vt 0.625000 0.250000
vt 0.625000 0.000000
vt 0.375000 0.500000
vt 0.625000 0.500000
vt 0.375000 0.750000
vt 0.625000 0.750000
vt 0.375000 1.000000
vt 0.625000 1.000000
vt 0.125000 0.500000
vt 0.125000 0.750000
vt 0.875000 0.750000
vt 0.875000 0.500000
s 0
usemtl Material.067
f 729/1247/469 731/1248/469 732/1249/469 730/1250/469
f 731/1248/470 735/1251/470 736/1252/470 732/1249/470
f 735/1251/471 733/1253/471 734/1254/471 736/1252/471
f 733/1253/472 729/1255/472 730/1256/472 734/1254/472
f 731/1257/473 729/1258/473 733/1253/473 735/1251/473
f 736/1252/474 734/1254/474 730/1259/474 732/1260/474
o Cube.062
v -15.588149 3.474822 12.222172
v -15.605143 3.466405 12.740831
v -13.464494 3.468781 12.291654
v -13.481487 3.460364 12.810313
v -15.585308 4.704002 12.242213
v -15.602302 4.695584 12.760873
v -13.461653 4.697961 12.311695
v -13.478646 4.689544 12.830355
vn -0.0023 -0.9999 -0.0163
vn 0.9995 -0.0028 0.0327
vn 0.0023 0.9999 0.0163
vn -0.9995 0.0028 -0.0327
vn 0.0327 0.0162 -0.9993
vn -0.0327 -0.0162 0.9993
vt 0.375000 0.000000
vt 0.375000 0.250000
vt 0.625000 0.250000
vt 0.625000 0.000000
vt 0.375000 0.500000
vt 0.625000 0.500000
vt 0.375000 0.750000
vt 0.625000 0.750000
vt 0.375000 1.000000
vt 0.625000 1.000000
vt 0.125000 0.500000
vt 0.125000 0.750000
vt 0.875000 0.750000
vt 0.875000 0.500000
s 0
usemtl Material.068
f 737/1261/475 739/1262/475 740/1263/475 738/1264/475
f 739/1262/476 743/1265/476 744/1266/476 740/1263/476
f 743/1265/477 741/1267/477 742/1268/477 744/1266/477
f 741/1267/478 737/1269/478 738/1270/478 742/1268/478
f 739/1271/479 737/1272/479 741/1267/479 743/1265/479
f 744/1266/480 742/1268/480 738/1273/480 740/1274/480
o Cube.063
v -15.588149 3.474822 7.727145
v -15.605143 3.466405 8.245805
v -13.464494 3.468781 7.796627
v -13.481487 3.460364 8.315287
v -15.585308 4.704002 7.747187
v -15.602302 4.695584 8.265846
v -13.461653 4.697961 7.816669
v -13.478646 4.689544 8.335328
vn -0.0023 -0.9999 -0.0163
vn 0.9995 -0.0028 0.0327
vn 0.0023 0.9999 0.0163
vn -0.9995 0.0028 -0.0327
vn 0.0327 0.0162 -0.9993
vn -0.0327 -0.0162 0.9993
vt 0.375000 0.000000
vt 0.375000 0.250000
vt 0.625000 0.250000
vt 0.625000 0.000000
vt 0.375000 0.500000
vt 0.625000 0.500000
vt 0.375000 0.750000
vt 0.625000 0.750000
vt 0.375000 1.000000
vt 0.625000 1.000000
vt 0.125000 0.500000
vt 0.125000 0.750000
vt 0.875000 0.750000
vt 0.875000 0.500000
s 0
usemtl Material.069
f 745/1275/481 747/1276/481 748/1277/481 746/1278/481
f 747/1276/482 751/1279/482 752/1280/482 748/1277/482
f 751/1279/483 749/1281/483 750/1282/483 752/1280/483
f 749/1281/484 745/1283/484 746/1284/484 750/1282/484
f 747/1285/485 745/1286/485 749/1281/485 751/1279/485
f 752/1280/486 750/1282/486 746/1287/486 748/1288/486
o Cube.064
v -15.833460 10.793736 -3.252072
v -15.833460 11.660668 -3.252072
v -15.090226 10.793736 -3.253083
v -15.090226 11.660668 -3.253083
v -15.850644 10.793736 -15.885681
v -15.850644 11.660668 -15.885681
v -15.107410 10.793736 -15.886692
v -15.107410 11.660668 -15.886692
vn 0.0014 -0.0000 1.0000
vn 1.0000 -0.0000 -0.0014
vn -0.0014 -0.0000 -1.0000
vn -1.0000 -0.0000 0.0014
vn -0.0000 -1.0000 -0.0000
vn -0.0000 1.0000 -0.0000
vt 0.375000 0.000000
vt 0.375000 0.250000
vt 0.625000 0.250000
vt 0.625000 0.000000
vt 0.375000 0.500000
vt 0.625000 0.500000
vt 0.375000 0.750000
vt 0.625000 0.750000
vt 0.375000 1.000000
vt 0.625000 1.000000
vt 0.125000 0.500000
vt 0.125000 0.750000
vt 0.875000 0.750000
vt 0.875000 0.500000
s 0
usemtl Material.070
f 753/1289/487 755/1290/487 756/1291/487 754/1292/487
f 755/1290/488 759/1293/488 760/1294/488 756/1291/488
f 759/1293/489 757/1295/489 758/1296/489 760/1294/489
f 757/1295/490 753/1297/490 754/1298/490 758/1296/490
f 755/1299/491 753/1300/491 757/1295/491 759/1293/491
f 760/1294/492 758/1296/492 754/1301/492 756/1302/492
o Cube.065
v -16.057438 10.854844 -11.901001
v -15.960072 11.543235 -11.901001
v -15.830553 10.822753 -11.901313
v -15.733187 11.511144 -11.901313
v -16.057816 10.854897 -12.181296
v -15.960449 11.543288 -12.181296
v -15.830931 10.822806 -12.181608
v -15.733564 11.511197 -12.181608
vn 0.0013 -0.0002 1.0000
vn 0.9901 -0.1400 -0.0014
vn -0.0013 0.0002 -1.0000
vn -0.9901 0.1400 0.0014
vn -0.1401 -0.9901 -0.0000
vn 0.1401 0.9901 -0.0000
vt 0.375000 0.000000
vt 0.375000 0.250000
vt 0.625000 0.250000
vt 0.625000 0.000000
vt 0.375000 0.500000
vt 0.625000 0.500000
vt 0.375000 0.750000
vt 0.625000 0.750000
vt 0.375000 1.000000
vt 0.625000 1.000000
vt 0.125000 0.500000
vt 0.125000 0.750000
vt 0.875000 0.750000
vt 0.875000 0.500000
s 0
usemtl Material.071
f 761/1303/493 763/1304/493 764/1305/493 762/1306/493
f 763/1304/494 767/1307/494 768/1308/494 764/1305/494
f 767/1307/495 765/1309/495 766/1310/495 768/1308/495
f 765/1309/496 761/1311/496 762/1312/496 766/1310/496
f 763/1313/497 761/1314/497 765/1309/497 767/1307/497
f 768/1308/498 766/1310/498 762/1315/498 764/1316/498
o Cube.066
v -16.011217 11.461578 -11.949238
v -15.834682 12.135888 -11.949238
v -15.789959 11.403652 -11.949549
v -15.613422 12.077962 -11.949549
v -16.011587 11.461675 -12.229534
v -15.835051 12.135984 -12.229534
v -15.790327 11.403749 -12.229845
v -15.613791 12.078058 -12.229845
vn 0.0013 -0.0003 1.0000
vn 0.9674 -0.2533 -0.0014
vn -0.0013 0.0003 -1.0000
vn -0.9674 0.2533 0.0014
vn -0.2533 -0.9674 -0.0000
vn 0.2533 0.9674 -0.0000
vt 0.375000 0.000000
vt 0.375000 0.250000
vt 0.625000 0.250000
vt 0.625000 0.000000
vt 0.375000 0.500000
vt 0.625000 0.500000
vt 0.375000 0.750000
vt 0.625000 0.750000
vt 0.375000 1.000000
vt 0.625000 1.000000
vt 0.125000 0.500000
vt 0.125000 0.750000
vt 0.875000 0.750000
vt 0.875000 0.500000
s 0
usemtl Material.072
f 769/1317/499 771/1318/499 772/1319/499 770/1320/499
f 771/1318/500 775/1321/500 776/1322/500 772/1319/500
f 775/1321/501 773/1323/501 774/1324/501 776/1322/501
f 773/1323/502 769/1325/502 770/1326/502 774/1324/502
f 771/1327/503 769/1328/503 773/1323/503 775/1321/503
f 776/1322/504 774/1324/504 770/1329/504 772/1330/504
o Cube.067
v -15.798927 12.111317 -11.949242
v -15.427424 12.723297 -11.949242
v -15.607354 11.995023 -11.949546
v -15.235851 12.607003 -11.949546
v -15.799253 12.111514 -12.229537
v -15.427751 12.723495 -12.229537
v -15.607680 11.995220 -12.229841
v -15.236177 12.607201 -12.229841
vn 0.0012 -0.0007 1.0000
vn 0.8548 -0.5189 -0.0014
vn -0.0012 0.0007 -1.0000
vn -0.8548 0.5189 0.0014
vn -0.5189 -0.8548 -0.0000
vn 0.5189 0.8548 -0.0000
vt 0.375000 0.000000
vt 0.375000 0.250000
vt 0.625000 0.250000
vt 0.625000 0.000000
vt 0.375000 0.500000
vt 0.625000 0.500000
vt 0.375000 0.750000
vt 0.625000 0.750000
vt 0.375000 1.000000
vt 0.625000 1.000000
vt 0.125000 0.500000
vt 0.125000 0.750000
vt 0.875000 0.750000
vt 0.875000 0.500000
s 0
usemtl Material.073
f 777/1331/505 779/1332/505 780/1333/505 778/1334/505
f 779/1332/506 783/1335/506 784/1336/506 780/1333/506
f 783/1335/507 781/1337/507 782/1338/507 784/1336/507
f 781/1337/508 777/1339/508 778/1340/508 782/1338/508
f 779/1341/509 777/1342/509 781/1337/509 783/1335/509
f 784/1336/510 782/1338/510 778/1343/510 780/1344/510
o Cube.068
v -15.443379 12.705412 -12.049773
v -14.843083 13.370855 -12.049773
v -15.263926 12.543526 -12.050102
v -14.663630 13.208970 -12.050102
v -15.443663 12.705667 -12.330069
v -14.843367 13.371111 -12.330069
v -15.264209 12.543781 -12.330398
v -14.663913 13.209225 -12.330398
vn 0.0010 -0.0009 1.0000
vn 0.7425 -0.6698 -0.0014
vn -0.0010 0.0009 -1.0000
vn -0.7425 0.6698 0.0014
vn -0.6698 -0.7425 -0.0000
vn 0.6698 0.7425 -0.0000
vt 0.375000 0.000000
vt 0.375000 0.250000
vt 0.625000 0.250000
vt 0.625000 0.000000
vt 0.375000 0.500000
vt 0.625000 0.500000
vt 0.375000 0.750000
vt 0.625000 0.750000
vt 0.375000 1.000000
vt 0.625000 1.000000
vt 0.125000 0.500000
vt 0.125000 0.750000
vt 0.875000 0.750000
vt 0.875000 0.500000
s 0
usemtl Material.074
f 785/1345/511 787/1346/511 788/1347/511 786/1348/511
f 787/1346/512 791/1349/512 792/1350/512 788/1347/512
f 791/1349/513 789/1351/513 790/1352/513 792/1350/513
f 789/1351/514 785/1353/514 786/1354/514 790/1352/514
f 787/1355/515 785/1356/515 789/1351/515 791/1349/515
f 792/1350/516 790/1352/516 786/1357/516 788/1358/516
o Cube.069
v -14.904080 13.262372 -12.049787
v -14.137495 13.688066 -12.049787
v -14.796305 13.068292 -12.050089
v -14.029719 13.493985 -12.050089
v -14.904265 13.262706 -12.330082
v -14.137680 13.688399 -12.330082
v -14.796490 13.068624 -12.330384
v -14.029904 13.494319 -12.330384
vn 0.0007 -0.0012 1.0000
vn 0.4855 -0.8742 -0.0014
vn -0.0007 0.0012 -1.0000
vn -0.4855 0.8742 0.0014
vn -0.8742 -0.4855 -0.0000
vn 0.8742 0.4855 -0.0000
vt 0.375000 0.000000
vt 0.375000 0.250000
vt 0.625000 0.250000
vt 0.625000 0.000000
vt 0.375000 0.500000
vt 0.625000 0.500000
vt 0.375000 0.750000
vt 0.625000 0.750000
vt 0.375000 1.000000
vt 0.625000 1.000000
vt 0.125000 0.500000
vt 0.125000 0.750000
vt 0.875000 0.750000
vt 0.875000 0.500000
s 0
usemtl Material.075
f 793/1359/517 795/1360/517 796/1361/517 794/1362/517
f 795/1360/518 799/1363/518 800/1364/518 796/1361/518
f 799/1363/519 797/1365/519 798/1366/519 800/1364/519
f 797/1365/520 793/1367/520 794/1368/520 798/1366/520
f 795/1369/521 793/1370/521 797/1365/521 799/1363/521
f 800/1364/522 798/1366/522 794/1371/522 796/1372/522
o Cube.070
v -13.996377 13.183306 -12.070345
v -14.189784 13.956644 -12.070345
v -13.634976 13.273690 -12.070851
v -13.828383 14.047029 -12.070851
v -13.995872 13.183433 -11.687348
v -14.189279 13.956771 -11.687348
v -13.634471 13.273817 -11.687855
v -13.827878 14.047155 -11.687855
vn -0.0013 -0.0003 -1.0000
vn 0.9701 0.2426 -0.0014
vn 0.0013 0.0003 1.0000
vn -0.9701 -0.2426 0.0014
vn 0.2426 -0.9701 -0.0000
vn -0.2426 0.9701 -0.0000
vt 0.375000 0.000000
vt 0.625000 0.000000
vt 0.625000 0.250000
vt 0.375000 0.250000
vt 0.625000 0.500000
vt 0.375000 0.500000
vt 0.625000 0.750000
vt 0.375000 0.750000
vt 0.625000 1.000000
vt 0.375000 1.000000
vt 0.125000 0.500000
vt 0.125000 0.750000
vt 0.875000 0.500000
vt 0.875000 0.750000
s 0
usemtl Material.077
f 801/1373/523 802/1374/523 804/1375/523 803/1376/523
f 803/1376/524 804/1375/524 808/1377/524 807/1378/524
f 807/1378/525 808/1377/525 806/1379/525 805/1380/525
f 805/1380/526 806/1379/526 802/1381/526 801/1382/526
f 803/1383/527 807/1378/527 805/1380/527 801/1384/527
f 808/1377/528 804/1385/528 802/1386/528 806/1379/528
